<svg xmlns="http://www.w3.org/2000/svg" width="100%" viewBox="0 0 287.61 427.37" style="max-width: 287.61px; background-color: transparent;" font-family="&quot;trebuchet ms&quot;, verdana, arial, sans-serif" font-size="16.00">
  <defs>
    <marker id="arrowhead" viewBox="0 0 10.00 10.00" refX="5.00" refY="5.00" markerWidth="8.00" markerHeight="8.00" orient="auto-start-reverse" markerUnits="userSpaceOnUse">
      <path d="M 0 0 L 10.00 5.00 L 0 10.00 z" fill="#333" />
    </marker>
  </defs>
  <g transform="translate(0.00,0.00)">
    <g class="edgePaths">
      <path d="M85.80,62.00 L85.03,109.18" stroke="#333" stroke-width="1.00" fill="none" stroke-linecap="round" stroke-linejoin="round" marker-end="url(#arrowhead)" />
      <path d="M69.59,245.17 L60.23,284.37 L60.23,315.37 L60.23,361.37" stroke="#333" stroke-width="1.00" fill="none" stroke-linecap="round" stroke-linejoin="round" marker-end="url(#arrowhead)" />
      <path d="M112.57,230.59 L147.03,284.37 L147.03,315.37 L189.17,362.39" stroke="#333" stroke-width="1.00" fill="none" stroke-linecap="round" stroke-linejoin="round" marker-end="url(#arrowhead)" />
      <path d="M269.61,392.37 L279.61,392.37 L279.61,35.00 L137.13,35.00" stroke="#333" stroke-width="1.00" fill="none" stroke-linecap="round" stroke-linejoin="round" marker-end="url(#arrowhead)" />
    </g>
    <g class="nodes">
      <rect x="39.34" y="8.00" width="93.79" height="54.00" fill="white" stroke="#333" stroke-width="1.00" stroke-linejoin="round" />
      <text x="86.24" y="35.00" text-anchor="middle" dominant-baseline="middle" fill="#333">Start</text>
      <polygon points="83.79,112.00 157.47,185.68 83.79,259.37 10.11,185.68" fill="white" stroke="#333" stroke-width="1.00" stroke-linejoin="round" />
      <text x="83.79" y="185.68" text-anchor="middle" dominant-baseline="middle" fill="#333">Is it working?</text>
      <rect x="8.00" y="365.37" width="104.46" height="54.00" fill="white" stroke="#333" stroke-width="1.00" stroke-linejoin="round" />
      <text x="60.23" y="392.37" text-anchor="middle" dominant-baseline="middle" fill="#333">Great!</text>
      <rect x="162.46" y="365.37" width="107.15" height="54.00" fill="white" stroke="#333" stroke-width="1.00" stroke-linejoin="round" />
      <text x="216.04" y="392.37" text-anchor="middle" dominant-baseline="middle" fill="#333">Debug</text>
    </g>
    <g class="edgeLabels">
      <rect x="42.45" y="267.87" width="35.57" height="28.00" fill="white" />
      <text x="60.23" y="281.87" text-anchor="middle" dominant-baseline="middle" fill="#333">Yes</text>
      <rect x="132.80" y="267.87" width="28.45" height="28.00" fill="white" />
      <text x="147.03" y="281.87" text-anchor="middle" dominant-baseline="middle" fill="#333">No</text>
    </g>
  </g>
</svg>
