<svg xmlns="http://www.w3.org/2000/svg" width="100%" viewBox="0 0 501.91 667.20" style="max-width: 501.91px; background-color: transparent;" font-family="&quot;trebuchet ms&quot;, verdana, arial, sans-serif" font-size="16.00">
  <defs>
    <marker id="arrowhead" viewBox="0 0 10.00 10.00" refX="5.00" refY="5.00" markerWidth="8.00" markerHeight="8.00" orient="auto-start-reverse" markerUnits="userSpaceOnUse">
      <path d="M 0 0 L 10.00 5.00 L 0 10.00 z" fill="#333" />
    </marker>
  </defs>
  <g transform="translate(0.00,0.00)">
    <g class="nodes">
      <polygon points="266.29,265.00 347.39,346.10 266.29,427.20 185.19,346.10" fill="white" stroke="#333" stroke-width="1.00" stroke-linejoin="round" />
      <text x="266.29" y="346.10" text-anchor="middle" dominant-baseline="middle" fill="#333">Authenticated?</text>
      <rect x="215.69" y="8.00" width="101.20" height="54.00" fill="white" stroke="#333" stroke-width="1.00" stroke-linejoin="round" />
      <text x="266.29" y="35.00" text-anchor="middle" dominant-baseline="middle" fill="#333">Client</text>
      <rect x="8.00" y="501.20" width="183.61" height="54.00" fill="white" stroke="#333" stroke-width="1.00" stroke-linejoin="round" />
      <text x="99.80" y="528.20" text-anchor="middle" dominant-baseline="middle" fill="#333">Process Request</text>
      <rect x="241.61" y="501.20" width="187.88" height="54.00" fill="white" stroke="#333" stroke-width="1.00" stroke-linejoin="round" />
      <text x="335.55" y="528.20" text-anchor="middle" dominant-baseline="middle" fill="#333">401 Unauthorized</text>
      <rect x="180.42" y="605.20" width="171.73" height="54.00" fill="white" stroke="#333" stroke-width="1.00" stroke-linejoin="round" />
      <text x="266.29" y="632.20" text-anchor="middle" dominant-baseline="middle" fill="#333">Send Response</text>
      <rect x="213.09" y="161.00" width="106.40" height="54.00" fill="white" stroke="#333" stroke-width="1.00" stroke-linejoin="round" />
      <text x="266.29" y="188.00" text-anchor="middle" dominant-baseline="middle" fill="#333">Server</text>
    </g>
    <g class="edgePaths">
      <path d="M266.29,62.00 L266.29,99.00 L266.29,157.00" stroke="#333" stroke-width="1.00" fill="none" stroke-linecap="round" stroke-linejoin="round" marker-end="url(#arrowhead)" />
      <path d="M266.29,215.00 L266.29,261.00" stroke="#333" stroke-width="1.00" fill="none" stroke-linecap="round" stroke-linejoin="round" marker-end="url(#arrowhead)" />
      <path d="M218.84,379.76 L99.80,464.20 L99.80,497.20" stroke="#333" stroke-width="1.00" fill="none" stroke-linecap="round" stroke-linejoin="round" marker-end="url(#arrowhead)" />
      <path d="M296.27,397.22 L335.55,464.20 L335.55,497.20" stroke="#333" stroke-width="1.00" fill="none" stroke-linecap="round" stroke-linejoin="round" marker-end="url(#arrowhead)" />
      <path d="M143.03,555.20 L219.68,603.09" stroke="#333" stroke-width="1.00" fill="none" stroke-linecap="round" stroke-linejoin="round" marker-end="url(#arrowhead)" />
      <path d="M317.57,555.20 L286.49,601.88" stroke="#333" stroke-width="1.00" fill="none" stroke-linecap="round" stroke-linejoin="round" marker-end="url(#arrowhead)" />
      <path d="M352.16,632.20 L437.49,632.20 L437.49,35.00 L320.89,35.00" stroke="#333" stroke-width="1.00" fill="none" stroke-linecap="round" stroke-linejoin="round" marker-end="url(#arrowhead)" />
    </g>
    <g class="edgeLabels">
      <rect x="211.44" y="85.00" width="109.71" height="28.00" fill="white" />
      <text x="266.29" y="99.00" text-anchor="middle" dominant-baseline="middle" fill="#333">HTTP Request</text>
      <rect x="128.87" y="417.53" width="33.98" height="28.00" fill="white" />
      <text x="145.87" y="431.53" text-anchor="middle" dominant-baseline="middle" fill="#333">Yes</text>
      <rect x="322.83" y="464.70" width="25.45" height="28.00" fill="white" />
      <text x="335.55" y="478.70" text-anchor="middle" dominant-baseline="middle" fill="#333">No</text>
      <rect x="377.07" y="301.97" width="120.84" height="28.00" fill="white" />
      <text x="437.49" y="315.97" text-anchor="middle" dominant-baseline="middle" fill="#333">HTTP Response</text>
    </g>
  </g>
</svg>
