<svg xmlns="http://www.w3.org/2000/svg" width="100%" viewBox="0 0 235.93 507.00" style="max-width: 235.93px; background-color: transparent;" font-family="&quot;trebuchet ms&quot;, verdana, arial, sans-serif" font-size="16.00">
  <defs>
    <marker id="arrowhead" viewBox="0 0 10.00 10.00" refX="5.00" refY="5.00" markerWidth="8.00" markerHeight="8.00" orient="auto-start-reverse" markerUnits="userSpaceOnUse">
      <path d="M 0 0 L 10.00 5.00 L 0 10.00 z" fill="#333" />
    </marker>
  </defs>
  <g transform="translate(2.34,0.00)">
    <g class="edgePaths">
      <path d="M77.47,22.00 L77.47,68.00" stroke="#333" stroke-width="1.00" fill="none" stroke-linecap="round" stroke-linejoin="round" marker-end="url(#arrowhead)" />
      <path d="M77.47,126.00 L77.47,203.00" stroke="#333" stroke-width="1.00" fill="none" stroke-linecap="round" stroke-linejoin="round" marker-end="url(#arrowhead)" />
      <path d="M30.89,261.00 L30.89,273.00 Q30.89,278.00 35.89,278.00 L37.12,278.00 Q42.12,278.00 42.12,283.00 L42.12,363.00" stroke="#333" stroke-width="1.00" fill="none" stroke-linecap="round" stroke-linejoin="round" marker-end="url(#arrowhead)" />
      <path d="M124.04,261.00 L124.04,273.00 Q124.04,278.00 129.04,278.00 L139.92,278.00 Q144.92,278.00 144.92,283.00 L144.92,363.00" stroke="#333" stroke-width="1.00" fill="none" stroke-linecap="round" stroke-linejoin="round" marker-end="url(#arrowhead)" />
      <path d="M191.80,394.00 L198.80,394.00 Q203.80,394.00 203.80,389.00 L203.80,104.00 Q203.80,99.00 198.80,99.00 L109.37,99.00" stroke="#333" stroke-width="1.00" fill="none" stroke-linecap="round" stroke-linejoin="round" marker-end="url(#arrowhead)" />
      <path d="M51.79,421.00 L51.79,441.00 Q51.79,446.00 56.79,446.00 L64.69,446.00 Q69.69,446.00 69.69,451.00 L69.69,467.00" stroke="#333" stroke-width="1.00" fill="none" stroke-linecap="round" stroke-linejoin="round" marker-end="url(#arrowhead)" />
    </g>
    <g class="nodes">
      <rect x="8.00" y="367.00" width="68.25" height="54.00" rx="5.00" ry="5.00" fill="white" stroke="#333" stroke-width="1.00" stroke-linejoin="round" />
      <text x="42.12" y="394.00" text-anchor="middle" dominant-baseline="middle" fill="#333">Done</text>
      <rect x="126.25" y="367.00" width="65.55" height="54.00" rx="5.00" ry="5.00" fill="white" stroke="#333" stroke-width="1.00" stroke-linejoin="round" />
      <text x="159.03" y="394.00" text-anchor="middle" dominant-baseline="middle" fill="#333">Error</text>
      <rect x="49.57" y="72.00" width="55.80" height="54.00" rx="5.00" ry="5.00" fill="white" stroke="#333" stroke-width="1.00" stroke-linejoin="round" />
      <text x="77.47" y="99.00" text-anchor="middle" dominant-baseline="middle" fill="#333">Idle</text>
      <rect x="22.89" y="207.00" width="109.15" height="54.00" rx="5.00" ry="5.00" fill="white" stroke="#333" stroke-width="1.00" stroke-linejoin="round" />
      <text x="77.47" y="234.00" text-anchor="middle" dominant-baseline="middle" fill="#333">Processing</text>
      <circle cx="74.70" cy="485.00" r="14.00" fill="white" stroke="#333" stroke-width="1.00" stroke-linejoin="round" />
      <circle cx="74.70" cy="485.00" r="9.00" fill="#333" stroke="#333" stroke-width="1.00" stroke-linejoin="round" />
      <text x="74.70" y="485.00" text-anchor="middle" dominant-baseline="middle" fill="#333"></text>
      <circle cx="77.47" cy="15.00" r="7.00" fill="#333" stroke="#333" stroke-width="1.00" stroke-linejoin="round" />
      <text x="77.47" y="15.00" text-anchor="middle" dominant-baseline="middle" fill="#333"></text>
    </g>
    <g class="edgeLabels">
      <rect x="57.91" y="152.50" width="39.12" height="28.00" fill="white" />
      <text x="77.47" y="166.50" text-anchor="middle" dominant-baseline="middle" fill="#333">start</text>
      <rect x="5.66" y="294.38" width="72.92" height="28.00" fill="white" />
      <text x="42.12" y="308.38" text-anchor="middle" dominant-baseline="middle" fill="#333">complete</text>
      <rect x="130.70" y="287.56" width="28.45" height="28.00" fill="white" />
      <text x="144.92" y="301.56" text-anchor="middle" dominant-baseline="middle" fill="#333">fail</text>
      <rect x="182.02" y="191.28" width="43.57" height="28.00" fill="white" />
      <text x="203.80" y="205.28" text-anchor="middle" dominant-baseline="middle" fill="#333">reset</text>
    </g>
  </g>
</svg>
