<svg xmlns="http://www.w3.org/2000/svg" width="100%" viewBox="0 0 581.37 520.00" style="max-width: 581.37px; background-color: transparent;" font-family="&quot;trebuchet ms&quot;, verdana, arial, sans-serif" font-size="16.00">
  <defs>
    <marker id="arrowhead" viewBox="0 0 10.00 10.00" refX="5.00" refY="5.00" markerWidth="8.00" markerHeight="8.00" orient="auto-start-reverse" markerUnits="userSpaceOnUse">
      <path d="M 0 0 L 10.00 5.00 L 0 10.00 z" fill="#333" />
    </marker>
  </defs>
  <g transform="translate(-26.10,0.00)">
    <g class="clusters">
      <rect class="subgraph" x="34.10" y="126.00" width="530.71" height="386.00" fill="none" stroke="#888" stroke-width="1.00" />
      <text x="299.45" y="130.00" text-anchor="middle" dominant-baseline="hanging" fill="#333">Active</text>
      <line x1="210.78" y1="126.00" x2="210.78" y2="512.00" stroke="#888" stroke-width="1.00" stroke-dasharray="6,4" />
      <line x1="380.61" y1="126.00" x2="380.61" y2="512.00" stroke="#888" stroke-width="1.00" stroke-dasharray="6,4" />
    </g>
    <g class="edgePaths">
      <path d="M127.35,22.00 L127.35,69.00 Q127.35,74.00 132.35,74.00 L294.45,74.00 Q299.45,74.00 299.45,79.00 L299.45,122.00" stroke="#333" stroke-width="1.00" fill="none" stroke-linecap="round" stroke-linejoin="round" marker-end="url(#arrowhead)" />
      <path d="M124.66,186.00 L124.66,232.00" stroke="#333" stroke-width="1.00" fill="none" stroke-linecap="round" stroke-linejoin="round" marker-end="url(#arrowhead)" />
      <path d="M126.40,290.00 L126.40,408.00" stroke="#333" stroke-width="1.00" fill="none" stroke-linecap="round" stroke-linejoin="round" marker-end="url(#arrowhead)" />
      <path d="M149.57,412.00 L149.57,350.60 Q149.57,345.60 154.57,345.60 L165.54,345.60 Q170.54,345.60 170.54,340.60 L170.54,294.00" stroke="#333" stroke-width="1.00" fill="none" stroke-linecap="round" stroke-linejoin="round" marker-end="url(#arrowhead)" />
      <path d="M295.69,186.00 L295.69,232.00" stroke="#333" stroke-width="1.00" fill="none" stroke-linecap="round" stroke-linejoin="round" marker-end="url(#arrowhead)" />
      <path d="M293.96,290.00 L293.96,314.20 Q293.96,315.00 293.15,315.00 L293.15,315.00 Q292.35,315.00 292.35,315.80 L292.35,345.21 Q292.35,346.00 293.14,346.00 L293.14,346.00 Q293.93,346.00 293.93,346.79 L293.93,408.00" stroke="#333" stroke-width="1.00" fill="none" stroke-linecap="round" stroke-linejoin="round" marker-end="url(#arrowhead)" />
      <path d="M314.57,412.00 L314.57,351.00 Q314.57,346.00 319.57,346.00 L338.61,346.00 Q343.61,346.00 343.61,341.00 L343.61,294.00" stroke="#333" stroke-width="1.00" fill="none" stroke-linecap="round" stroke-linejoin="round" marker-end="url(#arrowhead)" />
      <path d="M468.86,186.00 L468.86,232.00" stroke="#333" stroke-width="1.00" fill="none" stroke-linecap="round" stroke-linejoin="round" marker-end="url(#arrowhead)" />
      <path d="M468.86,290.00 L468.86,408.00" stroke="#333" stroke-width="1.00" fill="none" stroke-linecap="round" stroke-linejoin="round" marker-end="url(#arrowhead)" />
      <path d="M488.86,412.00 L488.86,356.00 Q488.86,351.00 493.86,351.00 L515.12,351.00 Q520.12,351.00 520.12,346.00 L520.12,294.00" stroke="#333" stroke-width="1.00" fill="none" stroke-linecap="round" stroke-linejoin="round" marker-end="url(#arrowhead)" />
    </g>
    <g class="nodes">
      <circle cx="124.66" cy="179.00" r="7.00" fill="#333" stroke="#333" stroke-width="1.00" stroke-linejoin="round" />
      <text x="124.66" y="179.00" text-anchor="middle" dominant-baseline="middle" fill="#333"></text>
      <circle cx="295.69" cy="179.00" r="7.00" fill="#333" stroke="#333" stroke-width="1.00" stroke-linejoin="round" />
      <text x="295.69" y="179.00" text-anchor="middle" dominant-baseline="middle" fill="#333"></text>
      <circle cx="468.86" cy="179.00" r="7.00" fill="#333" stroke="#333" stroke-width="1.00" stroke-linejoin="round" />
      <text x="468.86" y="179.00" text-anchor="middle" dominant-baseline="middle" fill="#333"></text>
      <rect x="235.78" y="236.00" width="119.83" height="54.00" rx="5.00" ry="5.00" fill="white" stroke="#333" stroke-width="1.00" stroke-linejoin="round" />
      <text x="295.69" y="263.00" text-anchor="middle" dominant-baseline="middle" fill="#333">CapsLockOff</text>
      <rect x="236.32" y="412.00" width="116.49" height="54.00" rx="5.00" ry="5.00" fill="white" stroke="#333" stroke-width="1.00" stroke-linejoin="round" />
      <text x="294.57" y="439.00" text-anchor="middle" dominant-baseline="middle" fill="#333">CapsLockOn</text>
      <rect x="66.79" y="236.00" width="115.75" height="54.00" rx="5.00" ry="5.00" fill="white" stroke="#333" stroke-width="1.00" stroke-linejoin="round" />
      <text x="124.66" y="263.00" text-anchor="middle" dominant-baseline="middle" fill="#333">NumLockOff</text>
      <rect x="73.37" y="412.00" width="112.41" height="54.00" rx="5.00" ry="5.00" fill="white" stroke="#333" stroke-width="1.00" stroke-linejoin="round" />
      <text x="129.57" y="439.00" text-anchor="middle" dominant-baseline="middle" fill="#333">NumLockOn</text>
      <rect x="405.61" y="236.00" width="126.51" height="54.00" rx="5.00" ry="5.00" fill="white" stroke="#333" stroke-width="1.00" stroke-linejoin="round" />
      <text x="468.86" y="263.00" text-anchor="middle" dominant-baseline="middle" fill="#333">ScrollLockOff</text>
      <rect x="407.28" y="412.00" width="123.17" height="54.00" rx="5.00" ry="5.00" fill="white" stroke="#333" stroke-width="1.00" stroke-linejoin="round" />
      <text x="468.86" y="439.00" text-anchor="middle" dominant-baseline="middle" fill="#333">ScrollLockOn</text>
      <circle cx="127.35" cy="15.00" r="7.00" fill="#333" stroke="#333" stroke-width="1.00" stroke-linejoin="round" />
      <text x="127.35" y="15.00" text-anchor="middle" dominant-baseline="middle" fill="#333"></text>
    </g>
    <g class="edgeLabels">
      <rect x="52.43" y="369.00" width="147.94" height="28.00" fill="white" />
      <text x="126.40" y="383.00" text-anchor="middle" dominant-baseline="middle" fill="#333">EvNumLockPressed</text>
      <rect x="80.68" y="331.60" width="147.94" height="28.00" fill="white" />
      <text x="154.65" y="345.60" text-anchor="middle" dominant-baseline="middle" fill="#333">EvNumLockPressed</text>
      <rect x="217.91" y="367.41" width="152.03" height="28.00" fill="white" />
      <text x="293.93" y="381.41" text-anchor="middle" dominant-baseline="middle" fill="#333">EvCapsLockPressed</text>
      <rect x="248.08" y="332.00" width="152.03" height="28.00" fill="white" />
      <text x="324.09" y="346.00" text-anchor="middle" dominant-baseline="middle" fill="#333">EvCapsLockPressed</text>
      <rect x="389.51" y="337.00" width="158.71" height="28.00" fill="white" />
      <text x="468.86" y="351.00" text-anchor="middle" dominant-baseline="middle" fill="#333">EvScrollLockPressed</text>
      <rect x="425.14" y="305.00" width="158.71" height="28.00" fill="white" />
      <text x="504.49" y="319.00" text-anchor="middle" dominant-baseline="middle" fill="#333">EvScrollLockPressed</text>
    </g>
  </g>
</svg>
