<svg xmlns="http://www.w3.org/2000/svg" width="100%" viewBox="0 0 757.86 432.00" style="max-width: 757.86px; background-color: transparent;" font-family="&quot;trebuchet ms&quot;, verdana, arial, sans-serif" font-size="16.00">
  <defs>
    <marker id="arrowhead" viewBox="0 0 10.00 10.00" refX="5.00" refY="5.00" markerWidth="8.00" markerHeight="8.00" orient="auto-start-reverse" markerUnits="userSpaceOnUse">
      <path d="M 0 0 L 10.00 5.00 L 0 10.00 z" fill="#333" />
    </marker>
    <marker id="crosshead" viewBox="0 0 11.00 11.00" refX="12.00" refY="5.20" markerWidth="11.00" markerHeight="11.00" orient="auto-start-reverse" markerUnits="userSpaceOnUse">
      <path d="M 1,1 l 9,9 M 10,1 l -9,9" stroke="#333" stroke-width="2" />
    </marker>
    <marker id="circlehead" viewBox="0 0 12.00 12.00" refX="11.00" refY="6.00" markerWidth="12.00" markerHeight="12.00" orient="auto-start-reverse" markerUnits="userSpaceOnUse">
      <circle cx="6" cy="6" r="5" stroke="#333" stroke-width="1" fill="white" />
    </marker>
    <marker id="open-arrowhead" viewBox="0 0 10.00 10.00" refX="5.00" refY="5.00" markerWidth="8.00" markerHeight="8.00" orient="auto-start-reverse" markerUnits="userSpaceOnUse">
      <polygon points="0,0 10.00,5.00 0,10.00" fill="white" stroke="#333" stroke-width="1" />
    </marker>
    <marker id="diamondhead" viewBox="0 0 12.00 12.00" refX="6.00" refY="6.00" markerWidth="12.00" markerHeight="12.00" orient="auto-start-reverse" markerUnits="userSpaceOnUse">
      <polygon points="0,6.00 6.00,0 12.00,6.00 6.00,12.00" fill="#333" />
    </marker>
    <marker id="open-diamondhead" viewBox="0 0 12.00 12.00" refX="6.00" refY="6.00" markerWidth="12.00" markerHeight="12.00" orient="auto-start-reverse" markerUnits="userSpaceOnUse">
      <polygon points="0,6.00 6.00,0 12.00,6.00 6.00,12.00" fill="white" stroke="#333" stroke-width="1" />
    </marker>
  </defs>
  <g transform="translate(-35.00,-20.00)">
    <g class="clusters">
    </g>
    <g class="nodes">
      <rect x="115.63" y="375.00" width="199.82" height="54.00" rx="5.00" ry="5.00" fill="white" stroke="#333" stroke-width="1.00" stroke-linejoin="round" />
      <text x="215.54" y="402.00" text-anchor="middle" dominant-baseline="middle" fill="#333">The state with a note</text>
      <rect x="58.00" y="43.00" width="315.08" height="78.00" fill="#fff5ad" stroke="#aaaa33" stroke-width="1.00" />
      <text x="215.54" y="70.00" text-anchor="middle" dominant-baseline="middle" fill="#333">Important information! You can write</text>
      <text x="215.54" y="94.00" text-anchor="middle" dominant-baseline="middle" fill="#333">notes.</text>
      <rect x="608.27" y="43.00" width="76.40" height="54.00" rx="5.00" ry="5.00" fill="white" stroke="#333" stroke-width="1.00" stroke-linejoin="round" />
      <text x="646.47" y="70.00" text-anchor="middle" dominant-baseline="middle" fill="#333">State2</text>
      <rect x="523.08" y="271.00" width="246.78" height="54.00" fill="#fff5ad" stroke="#aaaa33" stroke-width="1.00" />
      <text x="646.47" y="298.00" text-anchor="middle" dominant-baseline="middle" fill="#333">This is the note to the left.</text>
    </g>
    <g class="edgePaths">
      <path d="M315.45,402.00 L456.86,402.00 Q461.86,402.00 461.86,397.00 L461.86,75.00 Q461.86,70.00 466.86,70.00 L604.27,70.00" stroke="#333" stroke-width="1.00" fill="none" stroke-linecap="round" stroke-linejoin="round" marker-end="url(#arrowhead)" />
      <path d="M215.54,121.00 L215.54,375.00" stroke="#333" stroke-width="1.00" fill="none" stroke-linecap="round" stroke-linejoin="round" stroke-dasharray="2.00,4.00" />
      <path d="M646.47,97.00 L646.47,271.00" stroke="#333" stroke-width="1.00" fill="none" stroke-linecap="round" stroke-linejoin="round" stroke-dasharray="2.00,4.00" />
    </g>
    <g class="edgeLabels">
    </g>
  </g>
</svg>
