<svg xmlns="http://www.w3.org/2000/svg" width="100%" viewBox="0 0 218.80 587.00" style="max-width: 218.80px; background-color: transparent;" font-family="&quot;trebuchet ms&quot;, verdana, arial, sans-serif" font-size="16.00">
  <defs>
    <marker id="arrowhead" viewBox="0 0 10.00 10.00" refX="5.00" refY="5.00" markerWidth="8.00" markerHeight="8.00" orient="auto-start-reverse" markerUnits="userSpaceOnUse">
      <path d="M 0 0 L 10.00 5.00 L 0 10.00 z" fill="#333" />
    </marker>
  </defs>
  <g transform="translate(0.00,0.00)">
    <g class="edgePaths">
      <path d="M109.40,22.00 L109.40,68.00" stroke="#333" stroke-width="1.00" fill="none" stroke-linecap="round" stroke-linejoin="round" marker-end="url(#arrowhead)" />
      <path d="M82.40,79.00 L82.40,85.40 Q82.40,90.40 77.40,90.40 L72.40,90.40 Q67.40,90.40 67.40,95.40 L67.40,125.00" stroke="#333" stroke-width="1.00" fill="none" stroke-linecap="round" stroke-linejoin="round" marker-end="url(#arrowhead)" />
      <path d="M136.40,79.00 L136.40,85.40 Q136.40,90.40 141.40,90.40 L146.40,90.40 Q151.40,90.40 151.40,95.40 L151.40,125.00" stroke="#333" stroke-width="1.00" fill="none" stroke-linecap="round" stroke-linejoin="round" marker-end="url(#arrowhead)" />
      <path d="M67.40,183.00 L67.40,189.40 Q67.40,194.40 72.40,194.40 L77.40,194.40 Q82.40,194.40 82.40,199.40 L82.40,229.00" stroke="#333" stroke-width="1.00" fill="none" stroke-linecap="round" stroke-linejoin="round" marker-end="url(#arrowhead)" />
      <path d="M151.40,183.00 L151.40,189.40 Q151.40,194.40 146.40,194.40 L141.40,194.40 Q136.40,194.40 136.40,199.40 L136.40,229.00" stroke="#333" stroke-width="1.00" fill="none" stroke-linecap="round" stroke-linejoin="round" marker-end="url(#arrowhead)" />
      <path d="M109.40,240.00 L109.40,286.00" stroke="#333" stroke-width="1.00" fill="none" stroke-linecap="round" stroke-linejoin="round" marker-end="url(#arrowhead)" />
      <path d="M91.78,326.38 L51.20,326.38 Q46.20,326.38 46.20,331.38 L46.20,443.00" stroke="#333" stroke-width="1.00" fill="none" stroke-linecap="round" stroke-linejoin="round" marker-end="url(#arrowhead)" />
      <path d="M127.02,326.38 L167.60,326.38 Q172.60,326.38 172.60,331.38 L172.60,443.00" stroke="#333" stroke-width="1.00" fill="none" stroke-linecap="round" stroke-linejoin="round" marker-end="url(#arrowhead)" />
      <path d="M64.95,501.00 L64.95,507.40 Q64.95,512.40 69.95,512.40 L96.00,512.40 Q101.00,512.40 101.00,517.40 L101.00,547.00" stroke="#333" stroke-width="1.00" fill="none" stroke-linecap="round" stroke-linejoin="round" marker-end="url(#arrowhead)" />
      <path d="M153.85,501.00 L153.85,507.40 Q153.85,512.40 148.85,512.40 L122.80,512.40 Q117.80,512.40 117.80,517.40 L117.80,547.00" stroke="#333" stroke-width="1.00" fill="none" stroke-linecap="round" stroke-linejoin="round" marker-end="url(#arrowhead)" />
    </g>
    <g class="nodes">
      <rect x="8.00" y="129.00" width="76.40" height="54.00" rx="5.00" ry="5.00" fill="white" stroke="#333" stroke-width="1.00" stroke-linejoin="round" />
      <text x="46.20" y="156.00" text-anchor="middle" dominant-baseline="middle" fill="#333">State2</text>
      <rect x="134.40" y="129.00" width="76.40" height="54.00" rx="5.00" ry="5.00" fill="white" stroke="#333" stroke-width="1.00" stroke-linejoin="round" />
      <text x="172.60" y="156.00" text-anchor="middle" dominant-baseline="middle" fill="#333">State3</text>
      <rect x="8.00" y="447.00" width="76.40" height="54.00" rx="5.00" ry="5.00" fill="white" stroke="#333" stroke-width="1.00" stroke-linejoin="round" />
      <text x="46.20" y="474.00" text-anchor="middle" dominant-baseline="middle" fill="#333">State4</text>
      <rect x="134.40" y="447.00" width="76.40" height="54.00" rx="5.00" ry="5.00" fill="white" stroke="#333" stroke-width="1.00" stroke-linejoin="round" />
      <text x="172.60" y="474.00" text-anchor="middle" dominant-baseline="middle" fill="#333">State5</text>
      <circle cx="109.40" cy="565.00" r="14.00" fill="white" stroke="#333" stroke-width="1.00" stroke-linejoin="round" />
      <circle cx="109.40" cy="565.00" r="9.00" fill="#333" stroke="#333" stroke-width="1.00" stroke-linejoin="round" />
      <text x="109.40" y="565.00" text-anchor="middle" dominant-baseline="middle" fill="#333"></text>
      <circle cx="109.40" cy="15.00" r="7.00" fill="#333" stroke="#333" stroke-width="1.00" stroke-linejoin="round" />
      <text x="109.40" y="15.00" text-anchor="middle" dominant-baseline="middle" fill="#333"></text>
      <rect x="74.40" y="72.00" width="70.00" height="7.00" fill="#333" stroke="#333" stroke-width="1.00" stroke-linejoin="round" />
      <text x="109.40" y="75.50" text-anchor="middle" dominant-baseline="middle" fill="#333"></text>
      <polygon points="109.40,290.00 136.40,317.00 109.40,344.00 82.40,317.00" fill="white" stroke="#333" stroke-width="1.00" stroke-linejoin="round" />
      <text x="109.40" y="317.00" text-anchor="middle" dominant-baseline="middle" fill="#333"></text>
      <rect x="74.40" y="233.00" width="70.00" height="7.00" fill="#333" stroke="#333" stroke-width="1.00" stroke-linejoin="round" />
      <text x="109.40" y="236.50" text-anchor="middle" dominant-baseline="middle" fill="#333"></text>
    </g>
    <g class="edgeLabels">
      <rect x="29.39" y="352.50" width="33.61" height="28.00" fill="white" />
      <text x="46.20" y="366.50" text-anchor="middle" dominant-baseline="middle" fill="#333">yes</text>
      <rect x="160.06" y="352.50" width="25.08" height="28.00" fill="white" />
      <text x="172.60" y="366.50" text-anchor="middle" dominant-baseline="middle" fill="#333">no</text>
    </g>
  </g>
</svg>
