<svg xmlns="http://www.w3.org/2000/svg" width="100%" viewBox="0 0 182.20 366.00" style="max-width: 182.20px; background-color: transparent;" font-family="&quot;trebuchet ms&quot;, verdana, arial, sans-serif" font-size="16.00">
  <defs>
    <marker id="arrowhead" viewBox="0 0 10.00 10.00" refX="5.00" refY="5.00" markerWidth="8.00" markerHeight="8.00" orient="auto-start-reverse" markerUnits="userSpaceOnUse">
      <path d="M 0 0 L 10.00 5.00 L 0 10.00 z" fill="#333" />
    </marker>
  </defs>
  <g transform="translate(0.00,0.00)">
    <g class="edgePaths">
      <path d="M62.63,22.00 L62.63,68.00" stroke="#333" stroke-width="1.00" fill="none" stroke-linecap="round" stroke-linejoin="round" marker-end="url(#arrowhead)" />
      <path d="M117.25,85.50 L147.75,85.50 Q152.75,85.50 152.75,90.50 L152.75,107.50 Q152.75,112.50 147.75,112.50 L121.25,112.50" stroke="#333" stroke-width="1.00" fill="none" stroke-linecap="round" stroke-linejoin="round" marker-end="url(#arrowhead)" />
      <path d="M62.63,126.00 L62.63,222.00" stroke="#333" stroke-width="1.00" fill="none" stroke-linecap="round" stroke-linejoin="round" marker-end="url(#arrowhead)" />
      <path d="M62.63,280.00 L62.63,326.00" stroke="#333" stroke-width="1.00" fill="none" stroke-linecap="round" stroke-linejoin="round" marker-end="url(#arrowhead)" />
    </g>
    <g class="nodes">
      <rect x="30.36" y="226.00" width="64.52" height="54.00" rx="5.00" ry="5.00" fill="white" stroke="#333" stroke-width="1.00" stroke-linejoin="round" />
      <text x="62.63" y="253.00" text-anchor="middle" dominant-baseline="middle" fill="#333">Done</text>
      <rect x="8.00" y="72.00" width="109.25" height="54.00" rx="5.00" ry="5.00" fill="white" stroke="#333" stroke-width="1.00" stroke-linejoin="round" />
      <text x="62.63" y="99.00" text-anchor="middle" dominant-baseline="middle" fill="#333">Processing</text>
      <circle cx="62.63" cy="344.00" r="14.00" fill="white" stroke="#333" stroke-width="1.00" stroke-linejoin="round" />
      <circle cx="62.63" cy="344.00" r="9.00" fill="#333" stroke="#333" stroke-width="1.00" stroke-linejoin="round" />
      <text x="62.63" y="344.00" text-anchor="middle" dominant-baseline="middle" fill="#333"></text>
      <circle cx="62.63" cy="15.00" r="7.00" fill="#333" stroke="#333" stroke-width="1.00" stroke-linejoin="round" />
      <text x="62.63" y="15.00" text-anchor="middle" dominant-baseline="middle" fill="#333"></text>
    </g>
    <g class="edgeLabels">
      <rect x="131.30" y="85.00" width="42.89" height="28.00" fill="white" />
      <text x="152.75" y="99.00" text-anchor="middle" dominant-baseline="middle" fill="#333">retry</text>
    </g>
  </g>
</svg>
