<svg xmlns="http://www.w3.org/2000/svg" width="100%" viewBox="0 0 234.10 501.00" style="max-width: 234.10px; background-color: transparent;" font-family="&quot;trebuchet ms&quot;, verdana, arial, sans-serif" font-size="16.00">
  <defs>
    <marker id="arrowhead" viewBox="0 0 10.00 10.00" refX="5.00" refY="5.00" markerWidth="8.00" markerHeight="8.00" orient="auto-start-reverse" markerUnits="userSpaceOnUse">
      <path d="M 0 0 L 10.00 5.00 L 0 10.00 z" fill="#333" />
    </marker>
  </defs>
  <g transform="translate(4.87,0.00)">
    <g class="edgePaths">
      <path d="M76.76,22.00 L76.76,68.00" stroke="#333" stroke-width="1.00" fill="none" stroke-linecap="round" stroke-linejoin="round" marker-end="url(#arrowhead)" />
      <path d="M76.76,126.00 L76.76,200.00" stroke="#333" stroke-width="1.00" fill="none" stroke-linecap="round" stroke-linejoin="round" marker-end="url(#arrowhead)" />
      <path d="M30.14,258.00 L30.14,269.70 Q30.14,274.70 35.14,274.70 L35.26,274.70 Q40.26,274.70 40.26,279.70 L40.26,357.00" stroke="#333" stroke-width="1.00" fill="none" stroke-linecap="round" stroke-linejoin="round" marker-end="url(#arrowhead)" />
      <path d="M123.39,258.00 L123.39,269.70 Q123.39,274.70 128.39,274.70 L138.62,274.70 Q143.62,274.70 143.62,279.70 L143.62,357.00" stroke="#333" stroke-width="1.00" fill="none" stroke-linecap="round" stroke-linejoin="round" marker-end="url(#arrowhead)" />
      <path d="M187.79,388.00 L194.79,388.00 Q199.79,388.00 199.79,383.00 L199.79,104.00 Q199.79,99.00 194.79,99.00 L111.08,99.00" stroke="#333" stroke-width="1.00" fill="none" stroke-linecap="round" stroke-linejoin="round" marker-end="url(#arrowhead)" />
      <path d="M50.52,415.00 L50.52,435.00 Q50.52,440.00 55.52,440.00 L64.53,440.00 Q69.53,440.00 69.53,445.00 L69.53,461.00" stroke="#333" stroke-width="1.00" fill="none" stroke-linecap="round" stroke-linejoin="round" marker-end="url(#arrowhead)" />
    </g>
    <g class="nodes">
      <rect x="8.00" y="361.00" width="64.52" height="54.00" rx="5.00" ry="5.00" fill="white" stroke="#333" stroke-width="1.00" stroke-linejoin="round" />
      <text x="40.26" y="388.00" text-anchor="middle" dominant-baseline="middle" fill="#333">Done</text>
      <rect x="122.52" y="361.00" width="65.26" height="54.00" rx="5.00" ry="5.00" fill="white" stroke="#333" stroke-width="1.00" stroke-linejoin="round" />
      <text x="155.15" y="388.00" text-anchor="middle" dominant-baseline="middle" fill="#333">Error</text>
      <rect x="46.45" y="72.00" width="60.62" height="54.00" rx="5.00" ry="5.00" fill="white" stroke="#333" stroke-width="1.00" stroke-linejoin="round" />
      <text x="76.76" y="99.00" text-anchor="middle" dominant-baseline="middle" fill="#333">Idle</text>
      <rect x="22.14" y="204.00" width="109.25" height="54.00" rx="5.00" ry="5.00" fill="white" stroke="#333" stroke-width="1.00" stroke-linejoin="round" />
      <text x="76.76" y="231.00" text-anchor="middle" dominant-baseline="middle" fill="#333">Processing</text>
      <circle cx="74.85" cy="479.00" r="14.00" fill="white" stroke="#333" stroke-width="1.00" stroke-linejoin="round" />
      <circle cx="74.85" cy="479.00" r="9.00" fill="#333" stroke="#333" stroke-width="1.00" stroke-linejoin="round" />
      <text x="74.85" y="479.00" text-anchor="middle" dominant-baseline="middle" fill="#333"></text>
      <circle cx="76.76" cy="15.00" r="7.00" fill="#333" stroke="#333" stroke-width="1.00" stroke-linejoin="round" />
      <text x="76.76" y="15.00" text-anchor="middle" dominant-baseline="middle" fill="#333"></text>
    </g>
    <g class="edgeLabels">
      <rect x="48.17" y="134.50" width="57.18" height="28.00" fill="white" />
      <text x="76.76" y="148.50" text-anchor="middle" dominant-baseline="middle" fill="#333">submit</text>
      <rect x="3.13" y="266.50" width="74.26" height="28.00" fill="white" />
      <text x="40.26" y="280.50" text-anchor="middle" dominant-baseline="middle" fill="#333">complete</text>
      <rect x="127.74" y="283.39" width="31.76" height="28.00" fill="white" />
      <text x="143.62" y="297.39" text-anchor="middle" dominant-baseline="middle" fill="#333">fail</text>
      <rect x="178.34" y="191.15" width="42.89" height="28.00" fill="white" />
      <text x="199.79" y="205.15" text-anchor="middle" dominant-baseline="middle" fill="#333">retry</text>
    </g>
  </g>
</svg>
