<svg xmlns="http://www.w3.org/2000/svg" width="100%" viewBox="0 0 322.73 194.00" style="max-width: 322.73px; background-color: transparent;" font-family="&quot;trebuchet ms&quot;, verdana, arial, sans-serif" font-size="16.00">
  <defs>
    <marker id="arrowhead" viewBox="0 0 10.00 10.00" refX="5.00" refY="5.00" markerWidth="8.00" markerHeight="8.00" orient="auto-start-reverse" markerUnits="userSpaceOnUse">
      <path d="M 0 0 L 10.00 5.00 L 0 10.00 z" fill="#333" />
    </marker>
  </defs>
  <g transform="translate(0.00,0.00)">
    <g class="nodes">
      <rect x="8.00" y="112.00" width="68.91" height="54.00" fill="white" stroke="#333" stroke-width="1.00" stroke-linejoin="round" />
      <text x="42.45" y="139.00" text-anchor="middle" dominant-baseline="middle" fill="#333">A</text>
      <rect x="126.91" y="8.00" width="68.91" height="54.00" fill="white" stroke="#333" stroke-width="1.00" stroke-linejoin="round" />
      <text x="161.36" y="35.00" text-anchor="middle" dominant-baseline="middle" fill="#333">B</text>
      <rect x="126.91" y="112.00" width="68.91" height="54.00" fill="white" stroke="#333" stroke-width="1.00" stroke-linejoin="round" />
      <text x="161.36" y="139.00" text-anchor="middle" dominant-baseline="middle" fill="#333">C</text>
      <rect x="245.82" y="60.00" width="68.91" height="54.00" fill="white" stroke="#333" stroke-width="1.00" stroke-linejoin="round" />
      <text x="280.27" y="87.00" text-anchor="middle" dominant-baseline="middle" fill="#333">D</text>
    </g>
    <g class="edgePaths">
      <path d="M76.91,112.00 L79.69,112.00 C82.46,112.00 88.02,112.00 93.58,103.67 C99.13,95.33 104.69,78.67 109.58,70.33 C114.46,62.00 118.69,62.00 120.80,62.00 L122.91,62.00" stroke="#333" stroke-width="1.00" fill="none" stroke-linecap="round" stroke-linejoin="round" marker-end="url(#arrowhead)" />
      <path d="M76.91,139.00 L79.69,139.00 C82.46,139.00 88.02,139.00 93.58,139.00 C99.13,139.00 104.69,139.00 109.58,139.00 C114.46,139.00 118.69,139.00 120.80,139.00 L122.91,139.00" stroke="#333" stroke-width="1.00" fill="none" stroke-linecap="round" stroke-linejoin="round" marker-end="url(#arrowhead)" />
      <path d="M195.82,50.07 L198.60,50.07 C201.37,50.07 206.93,50.07 212.48,53.71 C218.04,57.36 223.60,64.64 228.48,68.29 C233.37,71.93 237.60,71.93 239.71,71.93 L241.82,71.93" stroke="#333" stroke-width="1.00" fill="none" stroke-linecap="round" stroke-linejoin="round" marker-end="url(#arrowhead)" />
      <path d="M195.82,123.93 L198.60,123.93 C201.37,123.93 206.93,123.93 212.48,120.29 C218.04,116.64 223.60,109.36 228.48,105.71 C233.37,102.07 237.60,102.07 239.71,102.07 L241.82,102.07" stroke="#333" stroke-width="1.00" fill="none" stroke-linecap="round" stroke-linejoin="round" marker-end="url(#arrowhead)" />
      <path d="M280.27,114.00 L280.27,122.00 L280.27,132.67 C280.27,143.33 280.27,164.67 240.64,175.33 C201.00,186.00 121.73,186.00 82.09,184.67 C42.45,183.33 42.45,180.67 42.45,179.33 L42.45,178.00 L42.45,170.00" stroke="#333" stroke-width="1.00" fill="none" stroke-linecap="round" stroke-linejoin="round" marker-end="url(#arrowhead)" />
      <path d="M280.27,114.00 L280.27,122.00 L280.27,131.33 C280.27,140.67 280.27,159.33 260.45,168.67 C240.64,178.00 201.00,178.00 181.18,160.67 C161.36,143.33 161.36,108.67 161.36,91.33 L161.36,74.00 L161.36,66.00" stroke="#333" stroke-width="1.00" fill="none" stroke-linecap="round" stroke-linejoin="round" marker-end="url(#arrowhead)" />
    </g>
    <g class="edgeLabels">
    </g>
  </g>
</svg>
