<svg xmlns="http://www.w3.org/2000/svg" width="100%" viewBox="0 0 211.52 525.00" style="max-width: 211.52px; background-color: transparent;" font-family="&quot;trebuchet ms&quot;, verdana, arial, sans-serif" font-size="16.00">
  <defs>
    <marker id="arrowhead" viewBox="0 0 10.00 10.00" refX="5.00" refY="5.00" markerWidth="8.00" markerHeight="8.00" orient="auto-start-reverse" markerUnits="userSpaceOnUse">
      <path d="M 0 0 L 10.00 5.00 L 0 10.00 z" fill="#333" />
    </marker>
  </defs>
  <g transform="translate(0.00,0.00)">
    <g class="edgePaths">
      <path d="M86.26,62.00 L86.26,70.00 L86.26,72.83 C86.26,75.67 86.26,81.33 86.26,89.33 C86.26,97.33 86.26,107.67 86.26,115.00 C86.26,122.33 86.26,126.67 86.26,128.83 L86.26,131.00 L86.26,139.00" stroke="#333" stroke-width="1.00" fill="none" stroke-linecap="round" stroke-linejoin="round" marker-end="url(#arrowhead)" />
      <path d="M86.26,197.00 L86.26,205.00 L86.26,207.83 C86.26,210.67 86.26,216.33 86.26,224.33 C86.26,232.33 86.26,242.67 86.26,254.17 C86.26,265.67 86.26,278.33 86.26,284.67 L86.26,291.00 L86.26,299.00" stroke="#333" stroke-width="1.00" fill="none" stroke-linecap="round" stroke-linejoin="round" marker-end="url(#arrowhead)" />
      <path d="M86.26,357.00 L86.26,365.00 L86.26,367.83 C86.26,370.67 86.26,376.33 86.26,384.33 C86.26,392.33 86.26,402.67 86.26,414.17 C86.26,425.67 86.26,438.33 86.26,444.67 L86.26,451.00 L86.26,459.00" stroke="#333" stroke-width="1.00" fill="none" stroke-linecap="round" stroke-linejoin="round" marker-end="url(#arrowhead)" />
      <path d="M164.51,490.00 L172.51,490.00 L172.85,490.00 C173.18,490.00 173.85,490.00 174.18,414.17 C174.51,338.33 174.51,186.67 173.95,110.83 C173.38,35.00 172.26,35.00 171.69,35.00 L171.13,35.00 L163.13,35.00" stroke="#333" stroke-width="1.00" fill="none" stroke-linecap="round" stroke-linejoin="round" marker-end="url(#arrowhead)" />
    </g>
    <g class="nodes">
      <rect x="15.15" y="303.00" width="142.22" height="54.00" fill="white" stroke="#333" stroke-width="1.00" stroke-linejoin="round" />
      <text x="86.26" y="330.00" text-anchor="middle" dominant-baseline="middle" fill="#333">Local Repo</text>
      <rect x="8.00" y="463.00" width="156.51" height="54.00" fill="white" stroke="#333" stroke-width="1.00" stroke-linejoin="round" />
      <text x="86.26" y="490.00" text-anchor="middle" dominant-baseline="middle" fill="#333">Remote Repo</text>
      <rect x="9.21" y="143.00" width="154.10" height="54.00" fill="white" stroke="#333" stroke-width="1.00" stroke-linejoin="round" />
      <text x="86.26" y="170.00" text-anchor="middle" dominant-baseline="middle" fill="#333">Staging Area</text>
      <rect x="13.38" y="8.00" width="145.75" height="54.00" fill="white" stroke="#333" stroke-width="1.00" stroke-linejoin="round" />
      <text x="86.26" y="35.00" text-anchor="middle" dominant-baseline="middle" fill="#333">Working Dir</text>
    </g>
    <g class="edgeLabels">
      <rect x="55.62" y="88.50" width="61.27" height="28.00" fill="white" />
      <text x="86.26" y="102.50" text-anchor="middle" dominant-baseline="middle" fill="#333">git add</text>
      <rect x="41.61" y="236.00" width="89.29" height="28.00" fill="white" />
      <text x="86.26" y="250.00" text-anchor="middle" dominant-baseline="middle" fill="#333">git commit</text>
      <rect x="51.35" y="396.00" width="69.80" height="28.00" fill="white" />
      <text x="86.26" y="410.00" text-anchor="middle" dominant-baseline="middle" fill="#333">git push</text>
      <rect x="141.51" y="245.81" width="62.01" height="28.00" fill="white" />
      <text x="172.51" y="259.81" text-anchor="middle" dominant-baseline="middle" fill="#333">git pull</text>
    </g>
  </g>
</svg>
