<svg xmlns="http://www.w3.org/2000/svg" width="100%" viewBox="0 0 1034.94 92.00" style="max-width: 1034.94px; background-color: transparent;" font-family="&quot;trebuchet ms&quot;, verdana, arial, sans-serif" font-size="16.00">
  <defs>
    <marker id="arrowhead" viewBox="0 0 10.00 10.00" refX="5.00" refY="5.00" markerWidth="8.00" markerHeight="8.00" orient="auto-start-reverse" markerUnits="userSpaceOnUse">
      <path d="M 0 0 L 10.00 5.00 L 0 10.00 z" fill="#333" />
    </marker>
  </defs>
  <g transform="translate(0.00,0.00)">
    <g class="edgePaths">
      <path d="M153.75,35.00 L161.75,35.00 L169.69,35.00 C177.63,35.00 193.50,35.00 208.71,35.00 C223.93,35.00 238.47,35.00 245.74,35.00 L253.01,35.00 L261.01,35.00" stroke="#333" stroke-width="1.00" fill="none" stroke-linecap="round" stroke-linejoin="round" marker-end="url(#arrowhead)" />
      <path d="M419.11,35.00 L427.11,35.00 L437.39,35.00 C447.66,35.00 468.21,35.00 492.26,35.00 C516.31,35.00 543.86,35.00 557.63,35.00 L571.41,35.00 L579.41,35.00" stroke="#333" stroke-width="1.00" fill="none" stroke-linecap="round" stroke-linejoin="round" marker-end="url(#arrowhead)" />
      <path d="M725.63,35.00 L733.63,35.00 L742.28,35.00 C750.93,35.00 768.23,35.00 789.03,35.00 C809.83,35.00 834.13,35.00 846.28,35.00 L858.43,35.00 L866.43,35.00" stroke="#333" stroke-width="1.00" fill="none" stroke-linecap="round" stroke-linejoin="round" marker-end="url(#arrowhead)" />
      <path d="M948.69,62.00 L948.69,70.00 L948.69,71.00 C948.69,72.00 948.69,74.00 804.05,75.00 C659.42,76.00 370.15,76.00 225.51,75.67 C80.87,75.33 80.87,74.67 80.87,74.33 L80.87,74.00 L80.87,66.00" stroke="#333" stroke-width="1.00" fill="none" stroke-linecap="round" stroke-linejoin="round" marker-end="url(#arrowhead)" />
    </g>
    <g class="nodes">
      <rect x="583.41" y="8.00" width="142.22" height="54.00" fill="white" stroke="#333" stroke-width="1.00" stroke-linejoin="round" />
      <text x="654.52" y="35.00" text-anchor="middle" dominant-baseline="middle" fill="#333">Local Repo</text>
      <rect x="870.43" y="8.00" width="156.51" height="54.00" fill="white" stroke="#333" stroke-width="1.00" stroke-linejoin="round" />
      <text x="948.69" y="35.00" text-anchor="middle" dominant-baseline="middle" fill="#333">Remote Repo</text>
      <rect x="265.01" y="8.00" width="154.10" height="54.00" fill="white" stroke="#333" stroke-width="1.00" stroke-linejoin="round" />
      <text x="342.06" y="35.00" text-anchor="middle" dominant-baseline="middle" fill="#333">Staging Area</text>
      <rect x="8.00" y="8.00" width="145.75" height="54.00" fill="white" stroke="#333" stroke-width="1.00" stroke-linejoin="round" />
      <text x="80.87" y="35.00" text-anchor="middle" dominant-baseline="middle" fill="#333">Working Dir</text>
    </g>
    <g class="edgeLabels">
      <rect x="176.75" y="21.00" width="61.27" height="28.00" fill="white" />
      <text x="207.38" y="35.00" text-anchor="middle" dominant-baseline="middle" fill="#333">git add</text>
      <rect x="454.61" y="21.00" width="89.29" height="28.00" fill="white" />
      <text x="499.26" y="35.00" text-anchor="middle" dominant-baseline="middle" fill="#333">git commit</text>
      <rect x="761.13" y="21.00" width="69.80" height="28.00" fill="white" />
      <text x="796.03" y="35.00" text-anchor="middle" dominant-baseline="middle" fill="#333">git push</text>
      <rect x="485.78" y="62.00" width="62.01" height="28.00" fill="white" />
      <text x="516.78" y="76.00" text-anchor="middle" dominant-baseline="middle" fill="#333">git pull</text>
    </g>
  </g>
</svg>
