<svg xmlns="http://www.w3.org/2000/svg" width="100%" viewBox="0 0 211.52 516.00" style="max-width: 211.52px; background-color: transparent;" font-family="&quot;trebuchet ms&quot;, verdana, arial, sans-serif" font-size="16.00">
  <defs>
    <marker id="arrowhead" viewBox="0 0 10.00 10.00" refX="5.00" refY="5.00" markerWidth="8.00" markerHeight="8.00" orient="auto-start-reverse" markerUnits="userSpaceOnUse">
      <path d="M 0 0 L 10.00 5.00 L 0 10.00 z" fill="#333" />
    </marker>
  </defs>
  <g transform="translate(0.00,0.00)">
    <g class="edgePaths">
      <path d="M86.26,62.00 L86.26,70.00 L86.26,75.17 C86.26,80.33 86.26,90.67 86.26,100.33 C86.26,110.00 86.26,119.00 86.26,123.50 L86.26,128.00 L86.26,136.00" stroke="#333" stroke-width="1.00" fill="none" stroke-linecap="round" stroke-linejoin="round" marker-end="url(#arrowhead)" />
      <path d="M86.26,194.00 L86.26,202.00 L86.26,207.17 C86.26,212.33 86.26,222.67 86.26,236.50 C86.26,250.33 86.26,267.67 86.26,276.33 L86.26,285.00 L86.26,293.00" stroke="#333" stroke-width="1.00" fill="none" stroke-linecap="round" stroke-linejoin="round" marker-end="url(#arrowhead)" />
      <path d="M86.26,351.00 L86.26,359.00 L86.26,364.17 C86.26,369.33 86.26,379.67 86.26,393.50 C86.26,407.33 86.26,424.67 86.26,433.33 L86.26,442.00 L86.26,450.00" stroke="#333" stroke-width="1.00" fill="none" stroke-linecap="round" stroke-linejoin="round" marker-end="url(#arrowhead)" />
      <path d="M164.51,481.00 L172.51,481.00 L172.85,481.00 C173.18,481.00 173.85,481.00 174.18,406.67 C174.51,332.33 174.51,183.67 173.95,109.33 C173.38,35.00 172.26,35.00 171.69,35.00 L171.13,35.00 L163.13,35.00" stroke="#333" stroke-width="1.00" fill="none" stroke-linecap="round" stroke-linejoin="round" marker-end="url(#arrowhead)" />
    </g>
    <g class="nodes">
      <rect x="15.15" y="297.00" width="142.22" height="54.00" fill="white" stroke="#333" stroke-width="1.00" stroke-linejoin="round" />
      <text x="86.26" y="324.00" text-anchor="middle" dominant-baseline="middle" fill="#333">Local Repo</text>
      <rect x="8.00" y="454.00" width="156.51" height="54.00" fill="white" stroke="#333" stroke-width="1.00" stroke-linejoin="round" />
      <text x="86.26" y="481.00" text-anchor="middle" dominant-baseline="middle" fill="#333">Remote Repo</text>
      <rect x="9.21" y="140.00" width="154.10" height="54.00" fill="white" stroke="#333" stroke-width="1.00" stroke-linejoin="round" />
      <text x="86.26" y="167.00" text-anchor="middle" dominant-baseline="middle" fill="#333">Staging Area</text>
      <rect x="13.38" y="8.00" width="145.75" height="54.00" fill="white" stroke="#333" stroke-width="1.00" stroke-linejoin="round" />
      <text x="86.26" y="35.00" text-anchor="middle" dominant-baseline="middle" fill="#333">Working Dir</text>
    </g>
    <g class="edgeLabels">
      <rect x="55.62" y="87.00" width="61.27" height="28.00" fill="white" />
      <text x="86.26" y="101.00" text-anchor="middle" dominant-baseline="middle" fill="#333">git add</text>
      <rect x="41.61" y="219.00" width="89.29" height="28.00" fill="white" />
      <text x="86.26" y="233.00" text-anchor="middle" dominant-baseline="middle" fill="#333">git commit</text>
      <rect x="51.35" y="376.00" width="69.80" height="28.00" fill="white" />
      <text x="86.26" y="390.00" text-anchor="middle" dominant-baseline="middle" fill="#333">git push</text>
      <rect x="141.51" y="241.31" width="62.01" height="28.00" fill="white" />
      <text x="172.51" y="255.31" text-anchor="middle" dominant-baseline="middle" fill="#333">git pull</text>
    </g>
  </g>
</svg>
