<svg xmlns="http://www.w3.org/2000/svg" width="100%" viewBox="0 0 505.91 681.20" style="max-width: 505.91px; background-color: transparent;" font-family="&quot;trebuchet ms&quot;, verdana, arial, sans-serif" font-size="16.00">
  <defs>
    <marker id="arrowhead" viewBox="0 0 10.00 10.00" refX="5.00" refY="5.00" markerWidth="8.00" markerHeight="8.00" orient="auto-start-reverse" markerUnits="userSpaceOnUse">
      <path d="M 0 0 L 10.00 5.00 L 0 10.00 z" fill="#333" />
    </marker>
  </defs>
  <g transform="translate(0.00,0.00)">
    <g class="edgePaths">
      <path d="M262.29,62.00 L262.29,70.00 L262.29,72.83 C262.29,75.67 262.29,81.33 262.29,89.33 C262.29,97.33 262.29,107.67 262.29,119.17 C262.29,130.67 262.29,143.33 262.29,149.67 L262.29,156.00 L262.29,164.00" stroke="#333" stroke-width="1.00" fill="none" stroke-linecap="round" stroke-linejoin="round" marker-end="url(#arrowhead)" />
      <path d="M262.29,222.00 L262.29,224.78 C262.29,227.56 262.29,233.11 262.29,238.67 C262.29,244.22 262.29,249.78 262.29,254.67 C262.29,259.56 262.29,263.78 262.29,265.89 L262.29,268.00" stroke="#333" stroke-width="1.00" fill="none" stroke-linecap="round" stroke-linejoin="round" marker-end="url(#arrowhead)" />
      <path d="M213.23,385.14 L206.53,389.52 L188.74,401.13 C170.95,412.74 135.38,435.97 117.59,452.76 C99.80,469.54 99.80,479.87 99.80,487.20 C99.80,494.54 99.80,498.87 99.80,501.04 L99.80,503.20 L99.80,511.20" stroke="#333" stroke-width="1.00" fill="none" stroke-linecap="round" stroke-linejoin="round" marker-end="url(#arrowhead)" />
      <path d="M295.42,401.08 L299.96,407.66 L305.89,416.25 C311.82,424.84 323.69,442.02 329.62,455.78 C335.55,469.54 335.55,479.87 335.55,487.20 C335.55,494.54 335.55,498.87 335.55,501.04 L335.55,503.20 L335.55,511.20" stroke="#333" stroke-width="1.00" fill="none" stroke-linecap="round" stroke-linejoin="round" marker-end="url(#arrowhead)" />
      <path d="M141.99,569.20 L141.99,571.98 C141.99,574.76 141.99,580.32 155.01,585.87 C168.03,591.43 194.07,596.98 207.09,601.87 C220.11,606.76 220.11,610.98 220.11,613.09 L220.11,615.20" stroke="#333" stroke-width="1.00" fill="none" stroke-linecap="round" stroke-linejoin="round" marker-end="url(#arrowhead)" />
      <path d="M316.53,569.20 L316.53,571.98 C316.53,574.76 316.53,580.32 310.66,585.87 C304.79,591.43 293.05,596.98 287.18,601.87 C281.31,606.76 281.31,610.98 281.31,613.09 L281.31,615.20" stroke="#333" stroke-width="1.00" fill="none" stroke-linecap="round" stroke-linejoin="round" marker-end="url(#arrowhead)" />
      <path d="M348.16,646.20 L356.16,646.20 L369.71,646.20 C383.27,646.20 410.38,646.20 423.93,544.34 C437.49,442.47 437.49,238.73 418.72,136.87 C399.96,35.00 362.42,35.00 343.66,35.00 L324.89,35.00 L316.89,35.00" stroke="#333" stroke-width="1.00" fill="none" stroke-linecap="round" stroke-linejoin="round" marker-end="url(#arrowhead)" />
    </g>
    <g class="nodes">
      <polygon points="262.29,272.00 343.39,353.10 262.29,434.20 181.19,353.10" fill="white" stroke="#333" stroke-width="1.00" stroke-linejoin="round" />
      <text x="262.29" y="353.10" text-anchor="middle" dominant-baseline="middle" fill="#333">Authenticated?</text>
      <rect x="211.69" y="8.00" width="101.20" height="54.00" fill="white" stroke="#333" stroke-width="1.00" stroke-linejoin="round" />
      <text x="262.29" y="35.00" text-anchor="middle" dominant-baseline="middle" fill="#333">Client</text>
      <rect x="8.00" y="515.20" width="183.61" height="54.00" fill="white" stroke="#333" stroke-width="1.00" stroke-linejoin="round" />
      <text x="99.80" y="542.20" text-anchor="middle" dominant-baseline="middle" fill="#333">Process Request</text>
      <rect x="241.61" y="515.20" width="187.88" height="54.00" fill="white" stroke="#333" stroke-width="1.00" stroke-linejoin="round" />
      <text x="335.55" y="542.20" text-anchor="middle" dominant-baseline="middle" fill="#333">401 Unauthorized</text>
      <rect x="176.42" y="619.20" width="171.73" height="54.00" fill="white" stroke="#333" stroke-width="1.00" stroke-linejoin="round" />
      <text x="262.29" y="646.20" text-anchor="middle" dominant-baseline="middle" fill="#333">Send Response</text>
      <rect x="209.09" y="168.00" width="106.40" height="54.00" fill="white" stroke="#333" stroke-width="1.00" stroke-linejoin="round" />
      <text x="262.29" y="195.00" text-anchor="middle" dominant-baseline="middle" fill="#333">Server</text>
    </g>
    <g class="edgeLabels">
      <rect x="207.44" y="70.50" width="109.71" height="28.00" fill="white" />
      <text x="262.29" y="84.50" text-anchor="middle" dominant-baseline="middle" fill="#333">HTTP Request</text>
      <rect x="117.75" y="422.39" width="33.98" height="28.00" fill="white" />
      <text x="134.75" y="436.39" text-anchor="middle" dominant-baseline="middle" fill="#333">Yes</text>
      <rect x="322.83" y="442.70" width="25.45" height="28.00" fill="white" />
      <text x="335.55" y="456.70" text-anchor="middle" dominant-baseline="middle" fill="#333">No</text>
      <rect x="377.07" y="308.97" width="120.84" height="28.00" fill="white" />
      <text x="437.49" y="322.97" text-anchor="middle" dominant-baseline="middle" fill="#333">HTTP Response</text>
    </g>
  </g>
</svg>
