<svg xmlns="http://www.w3.org/2000/svg" width="100%" viewBox="0 0 115.16 712.00" style="max-width: 115.16px; background-color: transparent;" font-family="&quot;trebuchet ms&quot;, verdana, arial, sans-serif" font-size="16.00">
  <defs>
    <marker id="arrowhead" viewBox="0 0 10.00 10.00" refX="5.00" refY="5.00" markerWidth="8.00" markerHeight="8.00" orient="auto-start-reverse" markerUnits="userSpaceOnUse">
      <path d="M 0 0 L 10.00 5.00 L 0 10.00 z" fill="#333" />
    </marker>
  </defs>
  <g transform="translate(0.00,0.00)">
    <g class="edgePaths">
      <path d="M57.58,62.00 L57.58,70.00 L57.58,72.83 C57.58,75.67 57.58,81.33 57.58,89.33 C57.58,97.33 57.58,107.67 57.58,119.17 C57.58,130.67 57.58,143.33 57.58,149.67 L57.58,156.00 L57.58,164.00" stroke="#333" stroke-width="1.00" fill="none" stroke-linecap="round" stroke-linejoin="round" marker-end="url(#arrowhead)" />
      <path d="M57.58,222.00 L57.58,230.00 L57.58,232.83 C57.58,235.67 57.58,241.33 57.58,249.33 C57.58,257.33 57.58,267.67 57.58,279.17 C57.58,290.67 57.58,303.33 57.58,309.67 L57.58,316.00 L57.58,324.00" stroke="#333" stroke-width="1.00" fill="none" stroke-linecap="round" stroke-linejoin="round" stroke-dasharray="2.00,4.00" marker-end="url(#arrowhead)" />
      <path d="M57.58,382.00 L57.58,390.00 L57.58,392.83 C57.58,395.67 57.58,401.33 57.58,409.67 C57.58,418.00 57.58,429.00 57.58,440.83 C57.58,452.67 57.58,465.33 57.58,471.67 L57.58,478.00 L57.58,486.00" stroke="#333" stroke-width="2.00" fill="none" stroke-linecap="round" stroke-linejoin="round" marker-end="url(#arrowhead)" />
      <path d="M57.58,544.00 L57.58,552.00 L57.58,554.83 C57.58,557.67 57.58,563.33 57.58,571.33 C57.58,579.33 57.58,589.67 57.58,601.17 C57.58,612.67 57.58,625.33 57.58,631.67 L57.58,638.00 L57.58,646.00" stroke="#333" stroke-width="1.00" fill="none" stroke-linecap="round" stroke-linejoin="round" marker-end="url(#arrowhead)" />
    </g>
    <g class="nodes">
      <rect x="9.95" y="8.00" width="95.26" height="54.00" fill="white" stroke="#333" stroke-width="1.00" stroke-linejoin="round" />
      <text x="57.58" y="35.00" text-anchor="middle" dominant-baseline="middle" fill="#333">Start</text>
      <rect x="11.62" y="168.00" width="91.92" height="54.00" fill="white" stroke="#333" stroke-width="1.00" stroke-linejoin="round" />
      <text x="57.58" y="195.00" text-anchor="middle" dominant-baseline="middle" fill="#333">Next</text>
      <rect x="8.00" y="328.00" width="99.16" height="54.00" fill="white" stroke="#333" stroke-width="1.00" stroke-linejoin="round" />
      <text x="57.58" y="355.00" text-anchor="middle" dominant-baseline="middle" fill="#333">Again</text>
      <rect x="10.32" y="490.00" width="94.52" height="54.00" fill="white" stroke="#333" stroke-width="1.00" stroke-linejoin="round" />
      <text x="57.58" y="517.00" text-anchor="middle" dominant-baseline="middle" fill="#333">Done</text>
      <rect x="11.62" y="650.00" width="91.92" height="54.00" fill="white" stroke="#333" stroke-width="1.00" stroke-linejoin="round" />
      <text x="57.58" y="677.00" text-anchor="middle" dominant-baseline="middle" fill="#333">Stop</text>
    </g>
    <g class="edgeLabels">
      <rect x="40.77" y="101.00" width="33.61" height="28.00" fill="white" />
      <text x="57.58" y="115.00" text-anchor="middle" dominant-baseline="middle" fill="#333">yes</text>
      <rect x="36.13" y="261.00" width="42.89" height="28.00" fill="white" />
      <text x="57.58" y="275.00" text-anchor="middle" dominant-baseline="middle" fill="#333">retry</text>
      <rect x="17.39" y="422.00" width="80.38" height="28.00" fill="white" />
      <text x="57.58" y="436.00" text-anchor="middle" dominant-baseline="middle" fill="#333">final step</text>
      <rect x="45.04" y="583.00" width="25.08" height="28.00" fill="white" />
      <text x="57.58" y="597.00" text-anchor="middle" dominant-baseline="middle" fill="#333">no</text>
    </g>
  </g>
</svg>
