<svg xmlns="http://www.w3.org/2000/svg" width="100%" viewBox="0 0 2168.22 909.00" style="max-width: 2168.22px; background-color: transparent;" font-family="&quot;trebuchet ms&quot;, verdana, arial, sans-serif" font-size="16.00">
  <defs>
    <marker id="arrowhead" viewBox="0 0 10.00 10.00" refX="5.00" refY="5.00" markerWidth="8.00" markerHeight="8.00" orient="auto-start-reverse" markerUnits="userSpaceOnUse">
      <path d="M 0 0 L 10.00 5.00 L 0 10.00 z" fill="#333" />
    </marker>
    <marker id="crosshead" viewBox="0 0 11.00 11.00" refX="12.00" refY="5.20" markerWidth="11.00" markerHeight="11.00" orient="auto-start-reverse" markerUnits="userSpaceOnUse">
      <path d="M 1,1 l 9,9 M 10,1 l -9,9" stroke="#333" stroke-width="2" />
    </marker>
    <marker id="circlehead" viewBox="0 0 10.00 10.00" refX="11.00" refY="5.00" markerWidth="11.00" markerHeight="11.00" orient="auto-start-reverse" markerUnits="userSpaceOnUse">
      <circle cx="5" cy="5" r="5" stroke="#333" stroke-width="1" fill="#333" />
    </marker>
    <marker id="open-arrowhead" viewBox="0 0 10.00 10.00" refX="5.00" refY="5.00" markerWidth="8.00" markerHeight="8.00" orient="auto-start-reverse" markerUnits="userSpaceOnUse">
      <polygon points="0,0 10.00,5.00 0,10.00" fill="white" stroke="#333" stroke-width="1" />
    </marker>
    <marker id="diamondhead" viewBox="0 0 12.00 12.00" refX="6.00" refY="6.00" markerWidth="12.00" markerHeight="12.00" orient="auto-start-reverse" markerUnits="userSpaceOnUse">
      <polygon points="0,6.00 6.00,0 12.00,6.00 6.00,12.00" fill="#333" />
    </marker>
    <marker id="open-diamondhead" viewBox="0 0 12.00 12.00" refX="6.00" refY="6.00" markerWidth="12.00" markerHeight="12.00" orient="auto-start-reverse" markerUnits="userSpaceOnUse">
      <polygon points="0,6.00 6.00,0 12.00,6.00 6.00,12.00" fill="white" stroke="#333" stroke-width="1" />
    </marker>
  </defs>
  <g transform="translate(0.00,0.00)">
    <g class="nodes">
      <rect x="248.12" y="80.00" width="114.01" height="54.00" fill="white" stroke="#333" stroke-width="1.00" stroke-linejoin="round" />
      <text x="305.13" y="107.00" text-anchor="middle" dominant-baseline="middle" fill="#333">builtins</text>
      <rect x="507.13" y="8.00" width="126.26" height="54.00" fill="white" stroke="#333" stroke-width="1.00" stroke-linejoin="round" />
      <text x="570.26" y="35.00" text-anchor="middle" dominant-baseline="middle" fill="#333">diagrams</text>
      <rect x="1162.44" y="142.00" width="115.87" height="54.00" fill="white" stroke="#333" stroke-width="1.00" stroke-linejoin="round" />
      <text x="1220.37" y="169.00" text-anchor="middle" dominant-baseline="middle" fill="#333">engines</text>
      <rect x="2056.79" y="254.00" width="103.43" height="54.00" fill="white" stroke="#333" stroke-width="1.00" stroke-linejoin="round" />
      <text x="2108.51" y="281.00" text-anchor="middle" dominant-baseline="middle" fill="#333">errors</text>
      <rect x="1863.91" y="440.00" width="107.88" height="54.00" fill="white" stroke="#333" stroke-width="1.00" stroke-linejoin="round" />
      <text x="1917.85" y="467.00" text-anchor="middle" dominant-baseline="middle" fill="#333">format</text>
      <rect x="828.39" y="564.00" width="129.04" height="54.00" fill="white" stroke="#333" stroke-width="1.00" stroke-linejoin="round" />
      <text x="892.91" y="591.00" text-anchor="middle" dominant-baseline="middle" fill="#333">frontends</text>
      <rect x="1549.61" y="316.00" width="100.09" height="54.00" fill="white" stroke="#333" stroke-width="1.00" stroke-linejoin="round" />
      <text x="1599.66" y="343.00" text-anchor="middle" dominant-baseline="middle" fill="#333">graph</text>
      <rect x="1162.44" y="316.00" width="122.18" height="54.00" fill="white" stroke="#333" stroke-width="1.00" stroke-linejoin="round" />
      <text x="1223.52" y="343.00" text-anchor="middle" dominant-baseline="middle" fill="#333">mermaid</text>
      <rect x="1162.44" y="688.00" width="103.06" height="54.00" fill="white" stroke="#333" stroke-width="1.00" stroke-linejoin="round" />
      <text x="1213.96" y="715.00" text-anchor="middle" dominant-baseline="middle" fill="#333">mmds</text>
      <rect x="1162.44" y="440.00" width="115.87" height="54.00" fill="white" stroke="#333" stroke-width="1.00" stroke-linejoin="round" />
      <text x="1220.37" y="467.00" text-anchor="middle" dominant-baseline="middle" fill="#333">payload</text>
      <rect x="828.39" y="368.00" width="116.61" height="54.00" fill="white" stroke="#333" stroke-width="1.00" stroke-linejoin="round" />
      <text x="886.70" y="395.00" text-anchor="middle" dominant-baseline="middle" fill="#333">registry</text>
      <rect x="1162.44" y="792.00" width="106.03" height="54.00" fill="white" stroke="#333" stroke-width="1.00" stroke-linejoin="round" />
      <text x="1215.45" y="819.00" text-anchor="middle" dominant-baseline="middle" fill="#333">render</text>
      <rect x="8.00" y="647.00" width="115.12" height="54.00" fill="white" stroke="#333" stroke-width="1.00" stroke-linejoin="round" />
      <text x="65.56" y="674.00" text-anchor="middle" dominant-baseline="middle" fill="#333">runtime</text>
      <rect x="1549.61" y="844.00" width="159.30" height="54.00" fill="white" stroke="#333" stroke-width="1.00" stroke-linejoin="round" />
      <text x="1629.26" y="871.00" text-anchor="middle" dominant-baseline="middle" fill="#333">simplification</text>
      <rect x="1549.61" y="440.00" width="118.46" height="54.00" fill="white" stroke="#333" stroke-width="1.00" stroke-linejoin="round" />
      <text x="1608.84" y="467.00" text-anchor="middle" dominant-baseline="middle" fill="#333">timeline</text>
    </g>
    <g class="edgePaths">
      <path d="M362.13,88.00 L378.03,88.00 Q383.03,88.00 383.03,83.00 L383.03,57.14 Q383.03,52.14 388.03,52.14 L503.13,52.14" stroke="#333" stroke-width="1.00" fill="none" stroke-linecap="round" stroke-linejoin="round" marker-end="url(#arrowhead)" />
      <path d="M362.13,126.00 L362.13,109.18 Q362.13,104.18 367.13,104.18 L1544.61,104.18 Q1549.61,104.18 1549.61,109.18 L1549.61,432.00 L1549.61,456.49 Q1549.61,461.49 1554.61,461.49 L1859.93,461.49" stroke="#333" stroke-width="1.00" fill="none" stroke-linecap="round" stroke-linejoin="round" marker-end="url(#arrowhead)" />
      <path d="M362.13,107.00 L410.93,107.00 Q415.16,107.00 415.16,111.23 L415.16,115.47 L415.16,390.00 Q415.16,395.00 420.16,395.00 L824.39,395.00" stroke="#333" stroke-width="1.00" fill="none" stroke-linecap="round" stroke-linejoin="round" marker-end="url(#arrowhead)" />
      <path d="M633.39,16.00 L1859.30,16.00 Q1863.91,16.00 1863.91,20.61 L1863.91,25.22 L1863.91,257.00 Q1863.91,262.00 1868.91,262.00 L2052.79,262.00" stroke="#333" stroke-width="1.00" fill="none" stroke-linecap="round" stroke-linejoin="round" marker-end="url(#arrowhead)" />
      <path d="M633.39,18.80 L1157.44,18.80 Q1162.44,18.80 1162.44,23.80 L1162.44,30.11 L1162.44,308.00 L1162.44,333.67 Q1162.44,338.67 1167.44,338.67 L1545.62,338.67" stroke="#333" stroke-width="1.00" fill="none" stroke-linecap="round" stroke-linejoin="round" marker-end="url(#arrowhead)" />
      <path d="M633.39,29.60 L687.70,29.60 Q692.70,29.60 692.70,34.60 L692.70,39.89 L692.70,319.00 Q692.70,324.00 697.70,324.00 L1158.44,324.00" stroke="#333" stroke-width="1.00" fill="none" stroke-linecap="round" stroke-linejoin="round" marker-end="url(#arrowhead)" />
      <path d="M633.39,51.20 L1098.13,51.20 Q1103.13,51.20 1103.13,56.20 L1103.13,443.00 Q1103.13,448.00 1108.13,448.00 L1158.44,448.00" stroke="#333" stroke-width="1.00" fill="none" stroke-linecap="round" stroke-linejoin="round" marker-end="url(#arrowhead)" />
      <path d="M633.39,40.40 L633.39,57.00 Q633.39,62.00 638.39,62.00 L797.49,62.00 Q802.49,62.00 802.49,67.00 L802.49,371.00 Q802.49,376.00 807.49,376.00 L824.39,376.00" stroke="#333" stroke-width="1.00" fill="none" stroke-linecap="round" stroke-linejoin="round" marker-end="url(#arrowhead)" />
      <path d="M633.39,54.00 L633.39,40.00 Q633.39,35.00 638.39,35.00 L1446.59,35.00 Q1451.59,35.00 1451.59,40.00 L1451.59,443.00 Q1451.59,448.00 1456.59,448.00 L1545.61,448.00" stroke="#333" stroke-width="1.00" fill="none" stroke-linecap="round" stroke-linejoin="round" marker-end="url(#arrowhead)" />
      <path d="M1278.30,150.00 L1357.55,150.00 Q1362.55,150.00 1362.55,145.00 L1362.55,143.00 Q1362.55,138.00 1367.55,138.00 L1858.91,138.00 Q1863.91,138.00 1863.91,143.00 L1863.91,276.00 Q1863.91,281.00 1868.91,281.00 L2052.79,281.00" stroke="#333" stroke-width="1.00" fill="none" stroke-linecap="round" stroke-linejoin="round" marker-end="url(#arrowhead)" />
      <path d="M1278.30,188.00 L1278.30,175.76 Q1278.30,170.76 1283.30,170.76 L1536.61,170.76 Q1541.61,170.76 1541.61,175.76 L1541.61,432.00 L1541.61,456.61 Q1541.61,461.61 1546.61,461.61 L1859.92,461.61" stroke="#333" stroke-width="1.00" fill="none" stroke-linecap="round" stroke-linejoin="round" marker-end="url(#arrowhead)" />
      <path d="M1278.30,169.00 L1278.30,190.58 Q1278.30,195.58 1283.30,195.58 L1306.83,195.58 Q1311.83,195.58 1311.83,200.58 L1311.83,338.00 Q1311.83,343.00 1316.83,343.00 L1545.61,343.00" stroke="#333" stroke-width="1.00" fill="none" stroke-linecap="round" stroke-linejoin="round" marker-end="url(#arrowhead)" />
      <path d="M1971.79,448.00 L2093.16,448.00 Q2098.16,448.00 2098.16,443.00 L2098.16,316.00 L2098.16,312.00" stroke="#333" stroke-width="1.00" fill="none" stroke-linecap="round" stroke-linejoin="round" marker-end="url(#arrowhead)" />
      <path d="M957.44,572.00 L980.34,572.00 Q984.34,572.00 984.34,568.00 L984.34,568.00 Q984.34,564.00 988.34,564.00 L1053.22,564.00 Q1058.22,564.00 1058.22,559.00 L1058.22,348.00 Q1058.22,343.00 1063.22,343.00 L1158.44,343.00" stroke="#333" stroke-width="1.00" fill="none" stroke-linecap="round" stroke-linejoin="round" marker-end="url(#arrowhead)" />
      <path d="M957.44,610.00 L1054.94,610.00 Q1059.94,610.00 1059.94,615.00 L1059.94,691.00 Q1059.94,696.00 1064.94,696.00 L1158.44,696.00" stroke="#333" stroke-width="1.00" fill="none" stroke-linecap="round" stroke-linejoin="round" marker-end="url(#arrowhead)" />
      <path d="M1649.70,324.00 L1649.70,338.00 Q1649.70,343.00 1654.70,343.00 L1691.81,343.00 Q1696.81,343.00 1696.81,338.00 L1696.81,299.11 Q1696.81,294.11 1701.81,294.11 L2034.85,294.11 Q2037.79,294.11 2037.79,297.05 L2037.79,297.05 Q2037.79,300.00 2040.74,300.00 L2052.79,300.00" stroke="#333" stroke-width="1.00" fill="none" stroke-linecap="round" stroke-linejoin="round" marker-end="url(#arrowhead)" />
      <path d="M1649.70,362.00 L1677.27,362.00 Q1677.52,362.00 1677.52,362.25 L1677.52,362.50 L1677.52,481.00 Q1677.52,486.00 1682.52,486.00 L1859.91,486.00" stroke="#333" stroke-width="1.00" fill="none" stroke-linecap="round" stroke-linejoin="round" marker-end="url(#arrowhead)" />
      <path d="M1284.61,324.00 L1284.61,325.82 Q1284.61,327.64 1286.43,327.64 L1288.61,327.64 Q1292.61,327.64 1292.61,323.64 L1292.61,266.00 Q1292.61,261.00 1297.61,261.00 L1858.91,261.00 Q1863.91,261.00 1863.91,266.00 L1863.91,319.00 Q1863.91,324.00 1868.91,324.00 L2059.79,324.00 Q2064.79,324.00 2064.79,319.00 L2064.79,312.00" stroke="#333" stroke-width="1.00" fill="none" stroke-linecap="round" stroke-linejoin="round" marker-end="url(#arrowhead)" />
      <path d="M1284.61,343.00 L1284.61,357.00 Q1284.61,362.00 1289.61,362.00 L1545.61,362.00" stroke="#333" stroke-width="1.00" fill="none" stroke-linecap="round" stroke-linejoin="round" marker-end="url(#arrowhead)" />
      <path d="M1284.61,362.00 L1317.18,362.00 Q1317.51,362.00 1317.51,362.33 L1317.51,362.66 L1317.51,462.00 Q1317.51,467.00 1322.51,467.00 L1545.61,467.00" stroke="#333" stroke-width="1.00" fill="none" stroke-linecap="round" stroke-linejoin="round" marker-end="url(#arrowhead)" />
      <path d="M1265.49,696.00 L1265.49,714.91 Q1265.49,719.91 1270.49,719.91 L1858.91,719.91 Q1863.91,719.91 1863.91,714.91 L1863.91,329.00 Q1863.91,324.00 1868.91,324.00 L2134.54,324.00 Q2139.54,324.00 2139.54,319.00 L2139.54,312.00" stroke="#333" stroke-width="1.00" fill="none" stroke-linecap="round" stroke-linejoin="round" marker-end="url(#arrowhead)" />
      <path d="M1265.49,724.00 L1265.49,705.72 Q1265.49,700.72 1270.49,700.72 L1474.62,700.72 Q1479.62,700.72 1479.62,695.72 L1479.62,515.00 Q1479.62,510.00 1484.62,510.00 L1894.87,510.00 Q1899.87,510.00 1899.87,505.00 L1899.87,498.00" stroke="#333" stroke-width="1.00" fill="none" stroke-linecap="round" stroke-linejoin="round" marker-end="url(#arrowhead)" />
      <path d="M1265.49,706.00 L1281.30,706.00 Q1286.30,706.00 1286.30,701.00 L1286.30,383.00 Q1286.30,378.00 1291.30,378.00 L1614.34,378.00 Q1616.34,378.00 1616.34,376.00 L1616.34,374.00" stroke="#333" stroke-width="1.00" fill="none" stroke-linecap="round" stroke-linejoin="round" marker-end="url(#arrowhead)" />
      <path d="M1265.49,734.00 L1402.55,734.00 Q1407.55,734.00 1407.55,739.00 L1407.55,866.00 Q1407.55,871.00 1412.55,871.00 L1545.61,871.00" stroke="#333" stroke-width="1.00" fill="none" stroke-linecap="round" stroke-linejoin="round" marker-end="url(#arrowhead)" />
      <path d="M1278.30,448.00 L1282.30,448.00 Q1286.30,448.00 1286.30,444.00 L1286.30,383.00 Q1286.30,378.00 1291.30,378.00 L1555.61,378.00 Q1557.61,378.00 1557.61,376.00 L1557.61,374.00" stroke="#333" stroke-width="1.00" fill="none" stroke-linecap="round" stroke-linejoin="round" marker-end="url(#arrowhead)" />
      <path d="M1278.30,486.00 L1545.61,486.00" stroke="#333" stroke-width="1.00" fill="none" stroke-linecap="round" stroke-linejoin="round" marker-end="url(#arrowhead)" />
      <path d="M945.00,376.00 L945.00,373.45 Q945.00,370.90 947.55,370.90 L1149.44,370.90 Q1154.44,370.90 1154.44,365.90 L1154.44,329.00 Q1154.44,324.00 1159.44,324.00 L2072.48,324.00 Q2077.48,324.00 2077.48,319.00 L2077.48,312.00" stroke="#333" stroke-width="1.00" fill="none" stroke-linecap="round" stroke-linejoin="round" marker-end="url(#arrowhead)" />
      <path d="M945.00,395.00 L945.00,396.06 Q945.00,397.11 946.06,397.11 L1043.68,397.11 Q1048.68,397.11 1048.68,402.11 L1048.68,419.00 Q1048.68,424.00 1053.68,424.00 L1912.85,424.00 Q1917.85,424.00 1917.85,429.00 L1917.85,436.00" stroke="#333" stroke-width="1.00" fill="none" stroke-linecap="round" stroke-linejoin="round" marker-end="url(#arrowhead)" />
      <path d="M945.00,414.00 L968.14,414.00 Q973.14,414.00 973.14,419.00 L973.14,462.00 Q973.14,467.00 978.14,467.00 L1158.44,467.00" stroke="#333" stroke-width="1.00" fill="none" stroke-linecap="round" stroke-linejoin="round" marker-end="url(#arrowhead)" />
      <path d="M1268.46,810.00 L1268.46,813.71 Q1268.46,817.41 1272.17,817.41 L1705.71,817.41 Q1710.71,817.41 1710.71,812.41 L1710.71,515.00 Q1710.71,510.00 1715.71,510.00 L1930.83,510.00 Q1935.83,510.00 1935.83,505.00 L1935.83,498.00" stroke="#333" stroke-width="1.00" fill="none" stroke-linecap="round" stroke-linejoin="round" marker-end="url(#arrowhead)" />
      <path d="M1268.46,800.00 L1281.30,800.00 Q1286.30,800.00 1286.30,795.00 L1286.30,383.00 Q1286.30,378.00 1291.30,378.00 L1639.70,378.00 Q1641.70,378.00 1641.70,376.00 L1641.70,374.00" stroke="#333" stroke-width="1.00" fill="none" stroke-linecap="round" stroke-linejoin="round" marker-end="url(#arrowhead)" />
      <path d="M1268.46,838.00 L1297.98,838.00 Q1302.98,838.00 1302.98,843.00 L1302.98,885.00 Q1302.98,890.00 1307.98,890.00 L1545.61,890.00" stroke="#333" stroke-width="1.00" fill="none" stroke-linecap="round" stroke-linejoin="round" marker-end="url(#arrowhead)" />
      <path d="M1268.46,828.00 L1655.08,828.00 Q1660.08,828.00 1660.08,823.00 L1660.08,502.00 L1660.08,498.00" stroke="#333" stroke-width="1.00" fill="none" stroke-linecap="round" stroke-linejoin="round" marker-end="url(#arrowhead)" />
      <path d="M123.12,655.00 L138.02,655.00 Q142.02,655.00 142.02,651.00 L142.02,647.00 L142.02,131.00 Q142.02,126.00 147.02,126.00 L244.12,126.00" stroke="#333" stroke-width="1.00" fill="none" stroke-linecap="round" stroke-linejoin="round" marker-end="url(#arrowhead)" />
      <path d="M123.12,655.00 L123.12,174.00 Q123.12,169.00 128.12,169.00 L1158.44,169.00" stroke="#333" stroke-width="1.00" fill="none" stroke-linecap="round" stroke-linejoin="round" marker-end="url(#arrowhead)" />
      <path d="M123.12,656.00 L123.12,651.50 Q123.12,647.00 127.62,647.00 L1313.96,647.00 Q1318.96,647.00 1318.96,642.00 L1318.96,236.00 Q1318.96,231.00 1323.96,231.00 L1858.91,231.00 Q1863.91,231.00 1863.91,236.00 L1863.91,319.00 Q1863.91,324.00 1868.91,324.00 L2113.85,324.00 Q2118.85,324.00 2118.85,319.00 L2118.85,312.00" stroke="#333" stroke-width="1.00" fill="none" stroke-linecap="round" stroke-linejoin="round" marker-end="url(#arrowhead)" />
      <path d="M123.12,674.00 L123.12,651.00 Q123.12,647.00 127.12,647.00 L127.12,647.00 Q131.12,647.00 131.12,643.00 L131.12,515.00 Q131.12,510.00 136.12,510.00 L1866.91,510.00 Q1871.91,510.00 1871.91,505.00 L1871.91,498.00" stroke="#333" stroke-width="1.00" fill="none" stroke-linecap="round" stroke-linejoin="round" marker-end="url(#arrowhead)" />
      <path d="M123.12,687.50 L123.12,596.00 Q123.12,591.00 128.12,591.00 L824.39,591.00" stroke="#333" stroke-width="1.00" fill="none" stroke-linecap="round" stroke-linejoin="round" marker-end="url(#arrowhead)" />
      <path d="M123.12,660.50 L607.41,660.50 Q612.41,660.50 612.41,655.50 L612.41,435.00 Q612.41,430.00 617.41,430.00 L1577.97,430.00 Q1582.97,430.00 1582.97,425.00 L1582.97,374.00" stroke="#333" stroke-width="1.00" fill="none" stroke-linecap="round" stroke-linejoin="round" marker-end="url(#arrowhead)" />
      <path d="M123.12,665.00 L1047.10,665.00 Q1052.10,665.00 1052.10,660.00 L1052.10,367.00 Q1052.10,362.00 1057.10,362.00 L1158.44,362.00" stroke="#333" stroke-width="1.00" fill="none" stroke-linecap="round" stroke-linejoin="round" marker-end="url(#arrowhead)" />
      <path d="M123.12,692.00 L228.45,692.00 Q233.45,692.00 233.45,697.00 L233.45,729.00 Q233.45,734.00 238.45,734.00 L1158.44,734.00" stroke="#333" stroke-width="1.00" fill="none" stroke-linecap="round" stroke-linejoin="round" marker-end="url(#arrowhead)" />
      <path d="M123.12,678.50 L123.12,692.02 Q123.12,697.02 128.12,697.02 L228.45,697.02 Q233.45,697.02 233.45,702.02 L233.45,742.00 Q233.45,747.00 238.45,747.00 L823.39,747.00 Q828.39,747.00 828.39,742.00 L828.39,491.00 Q828.39,486.00 833.39,486.00 L1158.44,486.00" stroke="#333" stroke-width="1.00" fill="none" stroke-linecap="round" stroke-linejoin="round" marker-end="url(#arrowhead)" />
      <path d="M123.12,669.50 L123.12,696.00 Q123.12,701.00 128.12,701.00 L195.05,701.00 Q200.05,701.00 200.05,706.00 L200.05,762.00 Q200.05,767.00 205.05,767.00 L502.13,767.00 Q507.13,767.00 507.13,762.00 L507.13,419.00 Q507.13,414.00 512.13,414.00 L824.39,414.00" stroke="#333" stroke-width="1.00" fill="none" stroke-linecap="round" stroke-linejoin="round" marker-end="url(#arrowhead)" />
      <path d="M123.12,693.00 L123.12,814.00 Q123.12,819.00 128.12,819.00 L1158.44,819.00" stroke="#333" stroke-width="1.00" fill="none" stroke-linecap="round" stroke-linejoin="round" marker-end="url(#arrowhead)" />
      <path d="M123.12,693.00 L123.12,685.00 Q123.12,680.00 128.12,680.00 L1157.44,680.00 Q1162.44,680.00 1162.44,685.00 L1162.44,847.00 Q1162.44,852.00 1167.44,852.00 L1545.61,852.00" stroke="#333" stroke-width="1.00" fill="none" stroke-linecap="round" stroke-linejoin="round" marker-end="url(#arrowhead)" />
      <path d="M123.12,683.00 L123.12,697.00 Q123.12,701.00 127.12,701.00 L127.12,701.00 Q131.12,701.00 131.12,705.00 L131.12,896.00 Q131.12,901.00 136.12,901.00 L1157.44,901.00 Q1162.44,901.00 1162.44,896.00 L1162.44,515.00 Q1162.44,510.00 1167.44,510.00 L1552.61,510.00 Q1557.61,510.00 1557.61,505.00 L1557.61,498.00" stroke="#333" stroke-width="1.00" fill="none" stroke-linecap="round" stroke-linejoin="round" marker-end="url(#arrowhead)" />
      <path d="M1708.91,852.00 L1708.91,866.00 Q1708.91,871.00 1713.91,871.00 L2139.22,871.00 Q2144.22,871.00 2144.22,866.00 L2144.22,328.00 Q2144.22,324.00 2148.22,324.00 L2148.22,324.00 Q2152.22,324.00 2152.22,320.00 L2152.22,312.00" stroke="#333" stroke-width="1.00" fill="none" stroke-linecap="round" stroke-linejoin="round" marker-end="url(#arrowhead)" />
      <path d="M1708.91,890.00 L1958.79,890.00 Q1963.79,890.00 1963.79,885.00 L1963.79,502.00 L1963.79,498.00" stroke="#333" stroke-width="1.00" fill="none" stroke-linecap="round" stroke-linejoin="round" marker-end="url(#arrowhead)" />
    </g>
    <g class="edgeLabels">
    </g>
  </g>
</svg>
