<svg xmlns="http://www.w3.org/2000/svg" width="100%" viewBox="0 0 1126.09 174.00" style="max-width: 1126.09px; background-color: transparent;" font-family="&quot;trebuchet ms&quot;, verdana, arial, sans-serif" font-size="16.00">
  <defs>
    <marker id="arrowhead" viewBox="0 0 10.00 10.00" refX="5.00" refY="5.00" markerWidth="8.00" markerHeight="8.00" orient="auto-start-reverse" markerUnits="userSpaceOnUse">
      <path d="M 0 0 L 10.00 5.00 L 0 10.00 z" fill="#333" />
    </marker>
  </defs>
  <g transform="translate(0.00,0.00)">
    <g class="edgePaths">
      <path d="M130.55,87.00 L133.32,87.00 C136.10,87.00 141.66,87.00 146.66,87.00 C151.66,87.00 156.10,87.00 160.99,87.00 C165.88,87.00 171.21,87.00 173.88,87.00 L176.55,87.00" stroke="#333" stroke-width="1.00" fill="none" stroke-linecap="round" stroke-linejoin="round" marker-end="url(#arrowhead)" />
      <path d="M275.81,87.00 L278.59,87.00 C281.37,87.00 286.92,87.00 291.92,87.00 C296.92,87.00 301.37,87.00 306.26,87.00 C311.14,87.00 316.48,87.00 319.14,87.00 L321.81,87.00" stroke="#333" stroke-width="1.00" fill="none" stroke-linecap="round" stroke-linejoin="round" marker-end="url(#arrowhead)" />
      <path d="M460.79,87.00 L463.57,87.00 C466.35,87.00 471.90,87.00 476.90,87.00 C481.90,87.00 486.35,87.00 491.24,87.00 C496.13,87.00 501.46,87.00 504.13,87.00 L506.79,87.00" stroke="#333" stroke-width="1.00" fill="none" stroke-linecap="round" stroke-linejoin="round" marker-end="url(#arrowhead)" />
      <path d="M650.42,87.00 L653.19,87.00 C655.97,87.00 661.53,87.00 666.53,87.00 C671.53,87.00 675.97,87.00 680.86,87.00 C685.75,87.00 691.08,87.00 693.75,87.00 L696.42,87.00" stroke="#333" stroke-width="1.00" fill="none" stroke-linecap="round" stroke-linejoin="round" marker-end="url(#arrowhead)" />
      <path d="M786.78,63.13 L786.78,58.44 C786.78,53.75 786.78,44.38 816.64,39.69 C846.50,35.00 906.22,35.00 936.08,35.00 L965.93,35.00" stroke="#333" stroke-width="1.00" fill="none" stroke-linecap="round" stroke-linejoin="round" marker-end="url(#arrowhead)" />
      <path d="M787.06,110.60 L787.06,115.33 C787.06,120.06 787.06,129.53 816.87,134.27 C846.68,139.00 906.31,139.00 936.12,139.00 L965.93,139.00" stroke="#333" stroke-width="1.00" fill="none" stroke-linecap="round" stroke-linejoin="round" marker-end="url(#arrowhead)" />
    </g>
    <g class="nodes">
      <rect x="180.55" y="60.00" width="95.26" height="54.00" fill="white" stroke="#333" stroke-width="1.00" stroke-linejoin="round" />
      <text x="228.18" y="87.00" text-anchor="middle" dominant-baseline="middle" fill="#333">Build</text>
      <polygon points="755.53,31.88 810.65,87.00 755.53,142.12 700.42,87.00" fill="white" stroke="#333" stroke-width="1.00" stroke-linejoin="round" />
      <text x="755.53" y="87.00" text-anchor="middle" dominant-baseline="middle" fill="#333">Deploy?</text>
      <rect x="510.79" y="60.00" width="139.62" height="54.00" fill="white" stroke="#333" stroke-width="1.00" stroke-linejoin="round" />
      <text x="580.60" y="87.00" text-anchor="middle" dominant-baseline="middle" fill="#333">Lint Check</text>
      <rect x="969.93" y="112.00" width="136.65" height="54.00" fill="white" stroke="#333" stroke-width="1.00" stroke-linejoin="round" />
      <text x="1038.26" y="139.00" text-anchor="middle" dominant-baseline="middle" fill="#333">Production</text>
      <rect x="8.00" y="60.00" width="122.55" height="54.00" fill="white" stroke="#333" stroke-width="1.00" stroke-linejoin="round" />
      <text x="69.27" y="87.00" text-anchor="middle" dominant-baseline="middle" fill="#333">Git Push</text>
      <rect x="969.93" y="8.00" width="148.16" height="54.00" fill="white" stroke="#333" stroke-width="1.00" stroke-linejoin="round" />
      <text x="1044.01" y="35.00" text-anchor="middle" dominant-baseline="middle" fill="#333">Staging Env</text>
      <rect x="325.81" y="60.00" width="134.98" height="54.00" fill="white" stroke="#333" stroke-width="1.00" stroke-linejoin="round" />
      <text x="393.30" y="87.00" text-anchor="middle" dominant-baseline="middle" fill="#333">Run Tests</text>
    </g>
    <g class="edgeLabels">
      <rect x="835.65" y="4.50" width="61.27" height="28.00" fill="white" />
      <text x="866.29" y="18.50" text-anchor="middle" dominant-baseline="middle" fill="#333">staging</text>
      <rect x="835.65" y="108.50" width="84.28" height="28.00" fill="white" />
      <text x="877.79" y="122.50" text-anchor="middle" dominant-baseline="middle" fill="#333">production</text>
    </g>
  </g>
</svg>
