<svg xmlns="http://www.w3.org/2000/svg" width="100%" viewBox="0 0 203.82 394.88" style="max-width: 203.82px; background-color: transparent;" font-family="&quot;trebuchet ms&quot;, verdana, arial, sans-serif" font-size="16.00">
  <defs>
    <marker id="arrowhead" viewBox="0 0 10.00 10.00" refX="5.00" refY="5.00" markerWidth="8.00" markerHeight="8.00" orient="auto-start-reverse" markerUnits="userSpaceOnUse">
      <path d="M 0 0 L 10.00 5.00 L 0 10.00 z" fill="#333" />
    </marker>
  </defs>
  <g transform="translate(0.00,0.00)">
    <g class="edgePaths">
      <path d="M101.91,62.00 L101.91,64.78 C101.91,67.56 101.91,73.11 101.91,78.11 C101.91,83.11 101.91,87.56 101.91,92.44 C101.91,97.33 101.91,102.67 101.91,105.33 L101.91,108.00" stroke="#333" stroke-width="1.00" fill="none" stroke-linecap="round" stroke-linejoin="round" marker-end="url(#arrowhead)" />
      <path d="M70.86,195.83 L66.12,195.83 C61.39,195.83 51.92,195.83 47.19,218.00 C42.45,240.18 42.45,284.53 42.45,306.70 L42.45,328.88" stroke="#333" stroke-width="1.00" fill="none" stroke-linecap="round" stroke-linejoin="round" marker-end="url(#arrowhead)" />
      <path d="M132.96,195.83 L137.69,195.83 C142.43,195.83 151.90,195.83 156.63,218.00 C161.36,240.18 161.36,284.53 161.36,306.70 L161.36,328.88" stroke="#333" stroke-width="1.00" fill="none" stroke-linecap="round" stroke-linejoin="round" marker-end="url(#arrowhead)" />
    </g>
    <g class="nodes">
      <rect x="54.28" y="8.00" width="95.26" height="54.00" fill="#ff0" stroke="#333" stroke-width="1.00" stroke-linejoin="round" />
      <text x="101.91" y="35.00" text-anchor="middle" dominant-baseline="middle" fill="#333">Start</text>
      <polygon points="101.91,112.00 159.35,169.44 101.91,226.88 44.47,169.44" fill="white" stroke="#333" stroke-width="1.00" stroke-linejoin="round" />
      <text x="101.91" y="169.44" text-anchor="middle" dominant-baseline="middle" fill="#333">Decision</text>
      <rect x="8.00" y="332.88" width="68.91" height="54.00" fill="#0f0" stroke="#333" stroke-width="1.00" stroke-linejoin="round" />
      <text x="42.45" y="359.88" text-anchor="middle" dominant-baseline="middle" fill="#333">C</text>
      <rect x="126.91" y="332.88" width="68.91" height="54.00" fill="#f00" stroke="#333" stroke-width="1.00" stroke-linejoin="round" />
      <text x="161.36" y="359.88" text-anchor="middle" dominant-baseline="middle" fill="#333">D</text>
    </g>
    <g class="edgeLabels">
      <rect x="25.46" y="235.38" width="33.98" height="28.00" fill="white" />
      <text x="42.45" y="249.38" text-anchor="middle" dominant-baseline="middle" fill="#333">Yes</text>
      <rect x="148.64" y="235.38" width="25.45" height="28.00" fill="white" />
      <text x="161.36" y="249.38" text-anchor="middle" dominant-baseline="middle" fill="#333">No</text>
    </g>
  </g>
</svg>
