<svg xmlns="http://www.w3.org/2000/svg" width="100%" viewBox="0 0 241.31 486.00" style="max-width: 241.31px; background-color: transparent;" font-family="&quot;trebuchet ms&quot;, verdana, arial, sans-serif" font-size="16.00">
  <defs>
    <marker id="arrowhead" viewBox="0 0 10.00 10.00" refX="5.00" refY="5.00" markerWidth="8.00" markerHeight="8.00" orient="auto-start-reverse" markerUnits="userSpaceOnUse">
      <path d="M 0 0 L 10.00 5.00 L 0 10.00 z" fill="#333" />
    </marker>
    <marker id="crosshead" viewBox="0 0 11.00 11.00" refX="12.00" refY="5.20" markerWidth="11.00" markerHeight="11.00" orient="auto-start-reverse" markerUnits="userSpaceOnUse">
      <path d="M 1,1 l 9,9 M 10,1 l -9,9" stroke="#333" stroke-width="2" />
    </marker>
    <marker id="circlehead" viewBox="0 0 10.00 10.00" refX="11.00" refY="5.00" markerWidth="11.00" markerHeight="11.00" orient="auto-start-reverse" markerUnits="userSpaceOnUse">
      <circle cx="5" cy="5" r="5" stroke="#333" stroke-width="1" fill="#333" />
    </marker>
    <marker id="open-arrowhead" viewBox="0 0 10.00 10.00" refX="5.00" refY="5.00" markerWidth="8.00" markerHeight="8.00" orient="auto-start-reverse" markerUnits="userSpaceOnUse">
      <polygon points="0,0 10.00,5.00 0,10.00" fill="white" stroke="#333" stroke-width="1" />
    </marker>
    <marker id="diamondhead" viewBox="0 0 12.00 12.00" refX="6.00" refY="6.00" markerWidth="12.00" markerHeight="12.00" orient="auto-start-reverse" markerUnits="userSpaceOnUse">
      <polygon points="0,6.00 6.00,0 12.00,6.00 6.00,12.00" fill="#333" />
    </marker>
    <marker id="open-diamondhead" viewBox="0 0 12.00 12.00" refX="6.00" refY="6.00" markerWidth="12.00" markerHeight="12.00" orient="auto-start-reverse" markerUnits="userSpaceOnUse">
      <polygon points="0,6.00 6.00,0 12.00,6.00 6.00,12.00" fill="white" stroke="#333" stroke-width="1" />
    </marker>
  </defs>
  <g transform="translate(0.00,0.00)">
    <g class="nodes">
      <rect x="8.00" y="8.00" width="68.91" height="54.00" fill="white" stroke="#333" stroke-width="1.00" stroke-linejoin="round" />
      <text x="42.45" y="35.00" text-anchor="middle" dominant-baseline="middle" fill="#333">A</text>
      <rect x="8.00" y="112.00" width="68.91" height="54.00" fill="white" stroke="#333" stroke-width="1.00" stroke-linejoin="round" />
      <text x="42.45" y="139.00" text-anchor="middle" dominant-baseline="middle" fill="#333">B</text>
      <rect x="8.00" y="216.00" width="68.91" height="54.00" fill="white" stroke="#333" stroke-width="1.00" stroke-linejoin="round" />
      <text x="42.45" y="243.00" text-anchor="middle" dominant-baseline="middle" fill="#333">C</text>
      <rect x="8.00" y="320.00" width="68.91" height="54.00" fill="white" stroke="#333" stroke-width="1.00" stroke-linejoin="round" />
      <text x="42.45" y="347.00" text-anchor="middle" dominant-baseline="middle" fill="#333">D</text>
      <rect x="8.00" y="424.00" width="68.91" height="54.00" fill="white" stroke="#333" stroke-width="1.00" stroke-linejoin="round" />
      <text x="42.45" y="451.00" text-anchor="middle" dominant-baseline="middle" fill="#333">E</text>
      <rect x="126.91" y="216.00" width="106.40" height="54.00" fill="white" stroke="#333" stroke-width="1.00" stroke-linejoin="round" />
      <text x="180.11" y="243.00" text-anchor="middle" dominant-baseline="middle" fill="#333">Target</text>
    </g>
    <g class="edgePaths">
      <path d="M76.91,54.00 L76.91,55.33 C76.91,56.67 76.91,59.33 85.05,87.03 C93.18,114.73 109.46,167.45 117.59,193.81 L125.73,220.18" stroke="#333" stroke-width="1.00" fill="none" stroke-linecap="round" stroke-linejoin="round" marker-end="url(#arrowhead)" />
      <path d="M76.91,158.00 L76.91,159.17 C76.91,160.34 76.91,162.69 84.88,176.29 C92.86,189.90 108.80,214.77 116.78,227.20 L124.75,239.63" stroke="#333" stroke-width="1.00" fill="none" stroke-linecap="round" stroke-linejoin="round" marker-end="url(#arrowhead)" />
      <path d="M76.91,243.00 L76.91,246.17 C76.91,249.33 76.91,255.67 84.58,258.83 C92.24,262.00 107.58,262.00 115.24,262.00 L122.91,262.00" stroke="#333" stroke-width="1.00" fill="none" stroke-linecap="round" stroke-linejoin="round" marker-end="url(#arrowhead)" />
      <path d="M76.91,328.00 L86.58,328.00 C96.24,328.00 115.58,328.00 125.24,319.00 C134.91,310.00 134.91,292.00 134.91,283.00 L134.91,274.00" stroke="#333" stroke-width="1.00" fill="none" stroke-linecap="round" stroke-linejoin="round" marker-end="url(#arrowhead)" />
      <path d="M76.91,432.00 L101.64,432.00 C126.38,432.00 175.84,432.00 200.58,405.67 C225.31,379.33 225.31,326.67 225.31,300.33 L225.31,274.00" stroke="#333" stroke-width="1.00" fill="none" stroke-linecap="round" stroke-linejoin="round" marker-end="url(#arrowhead)" />
    </g>
    <g class="edgeLabels">
    </g>
  </g>
</svg>
