<svg xmlns="http://www.w3.org/2000/svg" width="100%" viewBox="0 0 1052.17 1949.78" style="max-width: 1052.17px; background-color: transparent;" font-family="&quot;trebuchet ms&quot;, verdana, arial, sans-serif" font-size="16.00">
  <defs>
    <marker id="arrowhead" viewBox="0 0 10.00 10.00" refX="5.00" refY="5.00" markerWidth="8.00" markerHeight="8.00" orient="auto-start-reverse" markerUnits="userSpaceOnUse">
      <path d="M 0 0 L 10.00 5.00 L 0 10.00 z" fill="#333" />
    </marker>
  </defs>
  <g transform="translate(0.00,0.00)">
    <g class="edgePaths">
      <path d="M519.80,73.26 L519.80,76.04 C519.80,78.82 519.80,84.38 519.80,89.38 C519.80,94.38 519.80,98.82 519.80,103.71 C519.80,108.60 519.80,113.93 519.80,116.60 L519.80,119.26" stroke="#333" stroke-width="1.00" fill="none" stroke-linecap="round" stroke-linejoin="round" marker-end="url(#arrowhead)" />
      <path d="M443.36,177.26 L443.36,180.04 C443.36,182.82 443.36,188.38 443.36,193.38 C443.36,198.38 443.36,202.82 443.36,207.71 C443.36,212.60 443.36,217.93 443.36,220.60 L443.36,223.26" stroke="#333" stroke-width="1.00" fill="none" stroke-linecap="round" stroke-linejoin="round" marker-end="url(#arrowhead)" />
      <path d="M495.34,281.26 L495.34,490.94 L498.45,490.94 C501.55,490.94 507.76,490.94 513.97,490.94 C520.18,490.94 526.39,490.94 529.49,490.94 L532.60,490.94 L532.60,516.54" stroke="#333" stroke-width="1.00" fill="none" stroke-linecap="round" stroke-linejoin="round" marker-end="url(#arrowhead)" />
      <path d="M469.33,555.07 L435.90,555.07 C402.48,555.07 335.64,555.07 302.22,580.07 C268.80,605.07 268.80,655.07 268.80,680.07 L268.80,705.07" stroke="#333" stroke-width="1.00" fill="none" stroke-linecap="round" stroke-linejoin="round" marker-end="url(#arrowhead)" />
      <path d="M223.60,763.07 L223.60,770.76 C223.60,778.46 223.60,793.85 225.92,809.24 C228.24,824.63 232.89,840.02 235.21,854.75 C237.54,869.47 237.54,883.53 237.54,890.56 L237.54,897.59" stroke="#333" stroke-width="1.00" fill="none" stroke-linecap="round" stroke-linejoin="round" stroke-dasharray="2.00,4.00" marker-end="url(#arrowhead)" />
      <path d="M314.00,763.07 L314.00,781.07 L314.00,942.76 C314.00,1104.46 314.00,1427.86 323.93,1589.56 C333.86,1751.26 353.73,1751.26 363.66,1751.26 L373.60,1751.26 L373.60,1769.26" stroke="#333" stroke-width="1.00" fill="none" stroke-linecap="round" stroke-linejoin="round" marker-end="url(#arrowhead)" />
      <path d="M544.86,561.53 L557.75,561.53 C570.65,561.53 596.44,561.53 609.34,585.45 C622.23,609.38 622.23,657.22 622.23,681.14 L622.23,705.07" stroke="#333" stroke-width="1.00" fill="none" stroke-linecap="round" stroke-linejoin="round" marker-end="url(#arrowhead)" />
      <path d="M572.09,796.44 L552.59,796.44 C533.09,796.44 494.09,796.44 474.60,830.63 C455.10,864.82 455.10,933.20 455.10,967.39 L455.10,1001.59" stroke="#333" stroke-width="1.00" fill="none" stroke-linecap="round" stroke-linejoin="round" marker-end="url(#arrowhead)" />
      <path d="M665.25,803.57 L675.36,803.57 C685.47,803.57 705.69,803.57 715.80,836.57 C725.91,869.57 725.91,935.58 725.91,968.58 L725.91,1001.59" stroke="#333" stroke-width="1.00" fill="none" stroke-linecap="round" stroke-linejoin="round" marker-end="url(#arrowhead)" />
      <path d="M711.95,1059.59 L711.95,1062.64 C711.95,1065.70 711.95,1071.81 707.21,1077.64 C702.47,1083.47 692.99,1089.03 688.25,1094.47 C683.52,1099.92 683.52,1105.25 683.52,1107.92 L683.52,1110.59" stroke="#333" stroke-width="1.00" fill="none" stroke-linecap="round" stroke-linejoin="round" marker-end="url(#arrowhead)" />
      <path d="M669.56,1168.59 L669.56,1171.64 C669.56,1174.70 669.56,1180.81 669.56,1186.64 C669.56,1192.47 669.56,1198.03 669.56,1203.47 C669.56,1208.92 669.56,1214.25 669.56,1216.92 L669.56,1219.59" stroke="#333" stroke-width="1.00" fill="none" stroke-linecap="round" stroke-linejoin="round" marker-end="url(#arrowhead)" />
      <path d="M601.53,1277.59 L601.53,1281.91 C601.53,1286.24 601.53,1294.90 604.58,1303.56 C607.64,1312.22 613.75,1320.88 616.81,1328.87 C619.86,1336.86 619.86,1344.18 619.86,1347.85 L619.86,1351.51" stroke="#333" stroke-width="1.00" fill="none" stroke-linecap="round" stroke-linejoin="round" marker-end="url(#arrowhead)" />
      <path d="M635.47,1436.73 L635.47,1454.73 L635.47,1486.82 C635.47,1518.91 635.47,1583.08 650.71,1615.17 C665.95,1647.26 696.44,1647.26 711.68,1647.26 L726.93,1647.26 L726.93,1665.26" stroke="#333" stroke-width="1.00" fill="none" stroke-linecap="round" stroke-linejoin="round" marker-end="url(#arrowhead)" />
      <path d="M798.24,1696.26 L846.55,1696.26 L846.55,1640.95 C846.55,1585.65 846.55,1475.03 846.55,1364.42 C846.55,1253.81 846.55,1143.20 846.55,1087.89 L846.55,1032.59 L807.24,1032.59" stroke="#333" stroke-width="2.00" fill="none" stroke-linecap="round" stroke-linejoin="round" marker-end="url(#arrowhead)" />
      <path d="M594.64,1452.96 L586.84,1452.96 C579.04,1452.96 563.44,1452.96 555.64,1488.35 C547.84,1523.73 547.84,1594.49 547.84,1629.88 L547.84,1665.26" stroke="#333" stroke-width="1.00" fill="none" stroke-linecap="round" stroke-linejoin="round" marker-end="url(#arrowhead)" />
      <path d="M455.10,1059.59 L455.10,1262.81 L455.10,1279.74 C455.10,1296.68 455.10,1330.55 455.10,1364.42 C455.10,1398.29 455.10,1432.16 455.10,1449.10 L455.10,1466.03 L455.10,1665.26" stroke="#333" stroke-width="1.00" fill="none" stroke-linecap="round" stroke-linejoin="round" marker-end="url(#arrowhead)" />
      <path d="M457.70,1723.26 L457.70,1726.04 C457.70,1728.81 457.70,1734.37 460.33,1739.37 C462.97,1744.37 468.23,1748.81 470.87,1753.70 C473.50,1758.59 473.50,1763.92 473.50,1766.59 L473.50,1769.26" stroke="#333" stroke-width="1.00" fill="none" stroke-linecap="round" stroke-linejoin="round" marker-end="url(#arrowhead)" />
      <path d="M346.11,281.26 L346.11,284.04 C346.11,286.82 346.11,292.38 315.62,297.38 C285.14,302.38 224.16,306.82 193.68,311.71 C163.19,316.60 163.19,321.93 163.19,324.60 L163.19,327.26" stroke="#333" stroke-width="1.00" fill="none" stroke-linecap="round" stroke-linejoin="round" marker-end="url(#arrowhead)" />
      <path d="M16.00,385.26 L16.00,403.26 L28.27,403.26 C40.53,403.26 65.06,403.26 77.33,415.43 C89.60,427.60 89.60,451.93 89.60,464.10 L89.60,476.26 L89.60,494.26" stroke="#333" stroke-width="1.00" fill="none" stroke-linecap="round" stroke-linejoin="round" marker-end="url(#arrowhead)" />
      <path d="M89.60,552.26 L89.60,570.26 L89.60,767.10 C89.60,963.93 89.60,1357.59 131.76,1554.43 C173.92,1751.26 258.24,1751.26 300.40,1751.26 L342.56,1751.26 L342.56,1769.26" stroke="#333" stroke-width="1.00" fill="none" stroke-linecap="round" stroke-linejoin="round" marker-end="url(#arrowhead)" />
      <path d="M163.19,385.26 L163.19,490.26 L190.27,490.26 C217.34,490.26 271.48,490.26 325.62,490.26 C379.77,490.26 433.91,490.26 460.98,490.26 L488.05,490.26 L488.05,516.54" stroke="#333" stroke-width="1.00" fill="none" stroke-linecap="round" stroke-linejoin="round" marker-end="url(#arrowhead)" />
      <path d="M599.34,177.26 L599.34,180.04 C599.34,182.82 599.34,188.38 652.96,193.38 C706.59,198.38 813.84,202.82 867.46,207.71 C921.08,212.60 921.08,217.93 921.08,220.60 L921.08,223.26" stroke="#333" stroke-width="1.00" fill="none" stroke-linecap="round" stroke-linejoin="round" marker-end="url(#arrowhead)" />
      <path d="M978.63,281.26 L978.63,299.26 L978.63,541.26 C978.63,783.26 978.63,1267.26 895.97,1509.26 C813.32,1751.26 648.01,1751.26 565.36,1751.26 L482.70,1751.26 L482.70,1769.26" stroke="#333" stroke-width="1.00" fill="none" stroke-linecap="round" stroke-linejoin="round" marker-end="url(#arrowhead)" />
      <path d="M737.59,1277.59 L737.59,1295.59 L737.59,1332.70 C737.59,1369.81 737.59,1444.03 740.80,1481.15 C744.01,1518.26 750.43,1518.26 753.64,1518.26 L756.85,1518.26 L756.85,1536.26" stroke="#333" stroke-width="1.00" fill="none" stroke-linecap="round" stroke-linejoin="round" marker-end="url(#arrowhead)" />
      <path d="M782.87,1594.26 L806.24,1594.26 L747.14,1594.26 C688.05,1594.26 569.86,1594.26 510.76,1620.76 C451.67,1647.26 451.67,1700.26 451.67,1726.76 L451.67,1753.26 L451.67,1769.26" stroke="#333" stroke-width="1.00" fill="none" stroke-linecap="round" stroke-linejoin="round" stroke-dasharray="2.00,4.00" marker-end="url(#arrowhead)" />
      <path d="M412.63,1827.26 L412.63,1830.04 C412.63,1832.81 412.63,1838.37 412.63,1843.37 C412.63,1848.37 412.63,1852.81 412.63,1857.70 C412.63,1862.59 412.63,1867.92 412.63,1870.59 L412.63,1873.26" stroke="#333" stroke-width="1.00" fill="none" stroke-linecap="round" stroke-linejoin="round" marker-end="url(#arrowhead)" />
    </g>
    <g class="nodes">
      <ellipse cx="412.63" cy="1909.52" rx="32.26" ry="32.26" fill="white" stroke="#333" stroke-width="1.00" stroke-linejoin="round" />
      <text x="412.63" y="1909.52" text-anchor="middle" dominant-baseline="middle" fill="#333">Done</text>
      <rect x="679.15" y="1540.26" width="155.40" height="54.00" fill="white" stroke="#333" stroke-width="1.00" stroke-linejoin="round" />
      <text x="756.85" y="1567.26" text-anchor="middle" dominant-baseline="middle" fill="#333">Page On-call</text>
      <rect x="913.08" y="227.26" width="131.08" height="54.00" fill="white" stroke="#333" stroke-width="1.00" stroke-linejoin="round" />
      <text x="978.63" y="254.26" text-anchor="middle" dominant-baseline="middle" fill="#333">Audit Log</text>
      <rect x="8.00" y="331.26" width="163.19" height="54.00" fill="white" stroke="#333" stroke-width="1.00" stroke-linejoin="round" />
      <text x="89.60" y="358.26" text-anchor="middle" dominant-baseline="middle" fill="#333">Lookup Cache</text>
      <rect x="9.30" y="498.26" width="160.60" height="54.00" fill="white" stroke="#333" stroke-width="1.00" stroke-linejoin="round" />
      <text x="89.60" y="525.26" text-anchor="middle" dominant-baseline="middle" fill="#333">Serve Cached</text>
      <rect x="432.27" y="123.26" width="175.07" height="54.00" fill="white" stroke="#333" stroke-width="1.00" stroke-linejoin="round" />
      <text x="519.80" y="150.26" text-anchor="middle" dominant-baseline="middle" fill="#333">Ingest Request</text>
      <rect x="334.56" y="1773.26" width="156.14" height="54.00" fill="white" stroke="#333" stroke-width="1.00" stroke-linejoin="round" />
      <text x="412.63" y="1800.26" text-anchor="middle" dominant-baseline="middle" fill="#333">Emit Metrics</text>
      <rect x="160.96" y="901.59" width="142.96" height="54.00" fill="white" stroke="#333" stroke-width="1.00" stroke-linejoin="round" />
      <text x="232.44" y="928.59" text-anchor="middle" dominant-baseline="middle" fill="#333">Notify User</text>
      <rect x="338.11" y="227.26" width="165.24" height="54.00" fill="white" stroke="#333" stroke-width="1.00" stroke-linejoin="round" />
      <text x="420.72" y="254.26" text-anchor="middle" dominant-baseline="middle" fill="#333">Parse Payload</text>
      <rect x="391.16" y="1669.26" width="164.68" height="54.00" fill="white" stroke="#333" stroke-width="1.00" stroke-linejoin="round" />
      <text x="473.50" y="1696.26" text-anchor="middle" dominant-baseline="middle" fill="#333">Persist Result</text>
      <rect x="593.53" y="1223.59" width="152.06" height="54.00" fill="white" stroke="#333" stroke-width="1.00" stroke-linejoin="round" />
      <text x="669.56" y="1250.59" text-anchor="middle" dominant-baseline="middle" fill="#333">Process Job</text>
      <rect x="648.58" y="1005.59" width="154.66" height="54.00" fill="white" stroke="#333" stroke-width="1.00" stroke-linejoin="round" />
      <text x="725.91" y="1032.59" text-anchor="middle" dominant-baseline="middle" fill="#333">Enqueue Job</text>
      <rect x="215.60" y="709.07" width="106.40" height="54.00" fill="white" stroke="#333" stroke-width="1.00" stroke-linejoin="round" />
      <text x="268.80" y="736.07" text-anchor="middle" dominant-baseline="middle" fill="#333">Reject</text>
      <rect x="700.38" y="1669.26" width="97.86" height="54.00" fill="white" stroke="#333" stroke-width="1.00" stroke-linejoin="round" />
      <text x="749.31" y="1696.26" text-anchor="middle" dominant-baseline="middle" fill="#333">Retry</text>
      <polygon points="622.23,709.07 690.99,777.83 622.23,846.59 553.47,777.83" fill="white" stroke="#333" stroke-width="1.00" stroke-linejoin="round" />
      <text x="622.23" y="777.83" text-anchor="middle" dominant-baseline="middle" fill="#333">Route Type</text>
      <ellipse cx="519.80" cy="40.63" rx="32.63" ry="32.63" fill="white" stroke="#333" stroke-width="1.00" stroke-linejoin="round" />
      <text x="519.80" y="40.63" text-anchor="middle" dominant-baseline="middle" fill="#333">Start</text>
      <polygon points="606.94,1342.59 668.28,1403.92 606.94,1465.26 545.60,1403.92" fill="white" stroke="#333" stroke-width="1.00" stroke-linejoin="round" />
      <text x="606.94" y="1403.92" text-anchor="middle" dominant-baseline="middle" fill="#333">Success?</text>
      <rect x="375.08" y="1005.59" width="160.04" height="54.00" fill="white" stroke="#333" stroke-width="1.00" stroke-linejoin="round" />
      <text x="455.10" y="1032.59" text-anchor="middle" dominant-baseline="middle" fill="#333">Sync Pipeline</text>
      <polygon points="510.32,498.26 559.22,547.16 510.32,596.07 461.42,547.16" fill="white" stroke="#333" stroke-width="1.00" stroke-linejoin="round" />
      <text x="510.32" y="547.16" text-anchor="middle" dominant-baseline="middle" fill="#333">Valid?</text>
      <rect x="594.74" y="1114.59" width="149.64" height="54.00" fill="white" stroke="#333" stroke-width="1.00" stroke-linejoin="round" />
      <text x="669.56" y="1141.59" text-anchor="middle" dominant-baseline="middle" fill="#333">Worker Pool</text>
    </g>
    <g class="edgeLabels">
      <rect x="279.52" y="573.07" width="25.08" height="28.00" fill="white" />
      <text x="292.06" y="587.07" text-anchor="middle" dominant-baseline="middle" fill="#333">no</text>
      <rect x="605.43" y="614.61" width="33.61" height="28.00" fill="white" />
      <text x="622.23" y="628.61" text-anchor="middle" dominant-baseline="middle" fill="#333">yes</text>
      <rect x="434.02" y="885.09" width="42.15" height="28.00" fill="white" />
      <text x="455.10" y="899.09" text-anchor="middle" dominant-baseline="middle" fill="#333">sync</text>
      <rect x="700.56" y="892.25" width="50.69" height="28.00" fill="white" />
      <text x="725.91" y="906.25" text-anchor="middle" dominant-baseline="middle" fill="#333">async</text>
      <rect x="622.93" y="1616.72" width="25.08" height="28.00" fill="white" />
      <text x="635.47" y="1630.72" text-anchor="middle" dominant-baseline="middle" fill="#333">no</text>
      <rect x="531.03" y="1521.71" width="33.61" height="28.00" fill="white" />
      <text x="547.84" y="1535.71" text-anchor="middle" dominant-baseline="middle" fill="#333">yes</text>
      <rect x="39.24" y="425.76" width="27.12" height="28.00" fill="white" />
      <text x="52.80" y="439.76" text-anchor="middle" dominant-baseline="middle" fill="#333">hit</text>
      <rect x="266.90" y="508.26" width="42.71" height="28.00" fill="white" />
      <text x="288.26" y="522.26" text-anchor="middle" dominant-baseline="middle" fill="#333">miss</text>
      <rect x="734.84" y="1417.29" width="44.01" height="28.00" fill="white" />
      <text x="756.85" y="1431.29" text-anchor="middle" dominant-baseline="middle" fill="#333">warn</text>
    </g>
  </g>
</svg>
