<svg xmlns="http://www.w3.org/2000/svg" width="100%" viewBox="0 0 304.04 81.03" style="max-width: 304.04px; background-color: transparent;" font-family="&quot;trebuchet ms&quot;, verdana, arial, sans-serif" font-size="16.00">
  <defs>
    <marker id="arrowhead" viewBox="0 0 10.00 10.00" refX="5.00" refY="5.00" markerWidth="8.00" markerHeight="8.00" orient="auto-start-reverse" markerUnits="userSpaceOnUse">
      <path d="M 0 0 L 10.00 5.00 L 0 10.00 z" fill="#333" />
    </marker>
  </defs>
  <g transform="translate(0.00,-17.76)">
    <g class="edgePaths">
      <path d="M210.05,35.50 L210.05,39.76 L205.88,39.76 C201.72,39.76 193.38,39.76 189.22,42.22 C185.05,44.68 185.05,49.59 185.05,52.04 L185.05,54.50 L102.44,54.50" stroke="#333" stroke-width="1.00" fill="none" stroke-linecap="round" stroke-linejoin="round" marker-end="url(#arrowhead)" />
      <path d="M210.05,73.50 L210.05,66.83 L194.78,66.83 C179.51,66.83 148.98,66.83 133.71,67.94 C118.44,69.05 118.44,71.28 118.44,72.39 L118.44,73.50 L102.44,73.50" stroke="#333" stroke-width="1.00" fill="none" stroke-linecap="round" stroke-linejoin="round" marker-end="url(#arrowhead)" />
    </g>
    <g class="nodes">
      <rect x="210.05" y="27.50" width="85.98" height="54.00" fill="white" stroke="#333" stroke-width="1.00" stroke-linejoin="round" />
      <text x="253.04" y="54.50" text-anchor="middle" dominant-baseline="middle" fill="#333">One</text>
      <rect x="8.00" y="27.50" width="90.44" height="54.00" fill="white" stroke="#333" stroke-width="1.00" stroke-linejoin="round" />
      <text x="53.22" y="54.50" text-anchor="middle" dominant-baseline="middle" fill="#333">Two</text>
    </g>
    <g class="edgeLabels">
      <rect x="191.51" y="40.50" width="16.54" height="28.00" fill="white" />
      <text x="199.78" y="54.50" text-anchor="middle" dominant-baseline="middle" fill="#333">x</text>
      <rect x="142.79" y="44.50" width="33.61" height="52.00" fill="white" />
      <text x="159.59" y="58.50" text-anchor="middle" dominant-baseline="middle" fill="#333">yes</text>
      <text x="159.59" y="82.50" text-anchor="middle" dominant-baseline="middle" fill="#333">no</text>
    </g>
  </g>
</svg>
