<svg xmlns="http://www.w3.org/2000/svg" width="100%" viewBox="0 0 368.48 559.80" style="max-width: 368.48px; background-color: transparent;" font-family="&quot;trebuchet ms&quot;, verdana, arial, sans-serif" font-size="16.00">
  <defs>
    <marker id="arrowhead" viewBox="0 0 10.00 10.00" refX="5.00" refY="5.00" markerWidth="8.00" markerHeight="8.00" orient="auto-start-reverse" markerUnits="userSpaceOnUse">
      <path d="M 0 0 L 10.00 5.00 L 0 10.00 z" fill="#333" />
    </marker>
  </defs>
  <g transform="translate(0.00,0.00)">
    <g class="edgePaths">
      <path d="M106.35,62.00 L106.35,96.33 L106.35,99.19 C106.35,102.06 106.35,107.78 106.35,113.50 C106.35,119.22 106.35,124.94 106.35,127.81 L106.35,130.67 L106.35,161.00" stroke="#333" stroke-width="1.00" fill="none" stroke-linecap="round" stroke-linejoin="round" marker-end="url(#arrowhead)" />
      <path d="M100.25,219.00 L100.25,237.00 L100.25,243.33 C100.25,249.67 100.25,262.33 98.78,268.67 C97.32,275.00 94.38,275.00 92.91,275.00 L91.44,275.00 L91.44,293.00" stroke="#333" stroke-width="1.00" fill="none" stroke-linecap="round" stroke-linejoin="round" marker-end="url(#arrowhead)" />
      <path d="M67.97,372.53 L67.97,414.29 L67.97,417.77 C67.97,421.25 67.97,428.21 67.97,435.17 C67.97,442.13 67.97,449.08 67.97,452.56 L67.97,456.04 L67.97,493.80" stroke="#333" stroke-width="1.00" fill="none" stroke-linecap="round" stroke-linejoin="round" marker-end="url(#arrowhead)" />
      <path d="M128.30,357.95 L145.38,357.95 C162.47,357.95 196.65,357.95 213.74,380.59 C230.83,403.23 230.83,448.52 230.83,471.16 L230.83,493.80" stroke="#333" stroke-width="1.00" fill="none" stroke-linecap="round" stroke-linejoin="round" marker-end="url(#arrowhead)" />
      <path d="M327.04,524.80 L339.04,524.80 L339.04,497.07 C339.04,469.33 339.04,413.87 339.04,358.40 C339.04,302.93 339.04,247.47 339.04,219.73 L339.04,192.00 L160.58,192.00" stroke="#333" stroke-width="1.00" fill="none" stroke-linecap="round" stroke-linejoin="round" stroke-dasharray="2.00,4.00" marker-end="url(#arrowhead)" />
    </g>
    <g class="nodes">
      <polygon points="91.44,297.00 140.34,345.90 91.44,394.80 42.54,345.90" fill="white" stroke="#333" stroke-width="1.00" stroke-linejoin="round" />
      <text x="91.44" y="345.90" text-anchor="middle" dominant-baseline="middle" fill="#333">Valid?</text>
      <rect x="175.54" y="497.80" width="151.50" height="54.00" fill="white" stroke="#333" stroke-width="1.00" stroke-linejoin="round" />
      <text x="251.29" y="524.80" text-anchor="middle" dominant-baseline="middle" fill="#333">Handle Error</text>
      <rect x="8.00" y="497.80" width="117.54" height="54.00" fill="white" stroke="#333" stroke-width="1.00" stroke-linejoin="round" />
      <text x="66.77" y="524.80" text-anchor="middle" dominant-baseline="middle" fill="#333">Execute</text>
      <rect x="56.12" y="165.00" width="100.46" height="54.00" fill="white" stroke="#333" stroke-width="1.00" stroke-linejoin="round" />
      <text x="106.35" y="192.00" text-anchor="middle" dominant-baseline="middle" fill="#333">Setup</text>
      <rect x="56.77" y="8.00" width="99.16" height="54.00" fill="white" stroke="#333" stroke-width="1.00" stroke-linejoin="round" />
      <text x="106.35" y="35.00" text-anchor="middle" dominant-baseline="middle" fill="#333">Begin</text>
    </g>
    <g class="edgeLabels">
      <rect x="70.71" y="131.50" width="71.29" height="28.00" fill="white" />
      <text x="106.35" y="145.50" text-anchor="middle" dominant-baseline="middle" fill="#333">initialize</text>
      <rect x="57.97" y="242.00" width="75.74" height="28.00" fill="white" />
      <text x="95.85" y="256.00" text-anchor="middle" dominant-baseline="middle" fill="#333">configure</text>
      <rect x="51.16" y="453.17" width="33.61" height="28.00" fill="white" />
      <text x="67.97" y="467.17" text-anchor="middle" dominant-baseline="middle" fill="#333">yes</text>
      <rect x="218.29" y="360.61" width="25.08" height="28.00" fill="white" />
      <text x="230.83" y="374.61" text-anchor="middle" dominant-baseline="middle" fill="#333">no</text>
      <rect x="317.59" y="261.17" width="42.89" height="28.00" fill="white" />
      <text x="339.04" y="275.17" text-anchor="middle" dominant-baseline="middle" fill="#333">retry</text>
    </g>
  </g>
</svg>
