<svg xmlns="http://www.w3.org/2000/svg" width="100%" viewBox="0 0 203.82 227.00" style="max-width: 203.82px; background-color: transparent;" font-family="&quot;trebuchet ms&quot;, verdana, arial, sans-serif" font-size="16.00">
  <defs>
    <marker id="arrowhead" viewBox="0 0 10.00 10.00" refX="5.00" refY="5.00" markerWidth="8.00" markerHeight="8.00" orient="auto-start-reverse" markerUnits="userSpaceOnUse">
      <path d="M 0 0 L 10.00 5.00 L 0 10.00 z" fill="#333" />
    </marker>
  </defs>
  <g transform="translate(0.00,0.00)">
    <g class="edgePaths">
      <path d="M75.45,62.00 L75.45,80.00 L75.45,90.50 C75.45,101.00 75.45,122.00 69.95,132.50 C64.45,143.00 53.45,143.00 47.95,143.00 L42.45,143.00 L42.45,161.00" stroke="#333" stroke-width="1.00" fill="none" stroke-linecap="round" stroke-linejoin="round" marker-end="url(#arrowhead)" />
      <path d="M128.36,62.00 L128.36,80.00 L128.36,90.50 C128.36,101.00 128.36,122.00 133.86,132.50 C139.36,143.00 150.36,143.00 155.86,143.00 L161.36,143.00 L161.36,161.00" stroke="#333" stroke-width="1.00" fill="none" stroke-linecap="round" stroke-linejoin="round" marker-end="url(#arrowhead)" />
    </g>
    <g class="nodes">
      <rect x="67.45" y="8.00" width="68.91" height="54.00" fill="white" stroke="#333" stroke-width="1.00" stroke-linejoin="round" />
      <text x="101.91" y="35.00" text-anchor="middle" dominant-baseline="middle" fill="#333">A</text>
      <rect x="8.00" y="165.00" width="68.91" height="54.00" fill="white" stroke="#333" stroke-width="1.00" stroke-linejoin="round" />
      <text x="42.45" y="192.00" text-anchor="middle" dominant-baseline="middle" fill="#333">B</text>
      <rect x="126.91" y="165.00" width="68.91" height="54.00" fill="white" stroke="#333" stroke-width="1.00" stroke-linejoin="round" />
      <text x="161.36" y="192.00" text-anchor="middle" dominant-baseline="middle" fill="#333">C</text>
    </g>
    <g class="edgeLabels">
      <rect x="21.01" y="70.50" width="42.89" height="28.00" fill="white" />
      <text x="42.45" y="84.50" text-anchor="middle" dominant-baseline="middle" fill="#333">valid</text>
      <rect x="133.33" y="70.50" width="56.07" height="28.00" fill="white" />
      <text x="161.36" y="84.50" text-anchor="middle" dominant-baseline="middle" fill="#333">invalid</text>
    </g>
  </g>
</svg>
