<svg xmlns="http://www.w3.org/2000/svg" width="100%" viewBox="0 0 305.64 318.00" style="max-width: 305.64px; background-color: transparent;" font-family="&quot;trebuchet ms&quot;, verdana, arial, sans-serif" font-size="16.00">
  <defs>
    <marker id="arrowhead" viewBox="0 0 10.00 10.00" refX="5.00" refY="5.00" markerWidth="8.00" markerHeight="8.00" orient="auto-start-reverse" markerUnits="userSpaceOnUse">
      <path d="M 0 0 L 10.00 5.00 L 0 10.00 z" fill="#333" />
    </marker>
  </defs>
  <g transform="translate(90.93,0.00)">
    <g class="edgePaths">
      <path d="M42.45,62.00 L42.45,126.67 L42.45,132.06 C42.45,137.44 42.45,148.22 42.45,159.00 C42.45,169.78 42.45,180.56 42.45,185.94 L42.45,191.33 L42.45,252.00" stroke="#333" stroke-width="1.00" fill="none" stroke-linecap="round" stroke-linejoin="round" marker-end="url(#arrowhead)" />
      <path d="M59.68,256.00 L59.68,86.00 L60.12,86.00 C60.55,86.00 61.42,86.00 62.30,86.00 C63.17,86.00 64.04,86.00 64.47,86.00 L64.91,86.00 L64.91,66.00" stroke="#333" stroke-width="1.00" fill="none" stroke-linecap="round" stroke-linejoin="round" marker-end="url(#arrowhead)" />
    </g>
    <g class="nodes">
      <rect x="8.00" y="8.00" width="68.91" height="54.00" fill="white" stroke="#333" stroke-width="1.00" stroke-linejoin="round" />
      <text x="42.45" y="35.00" text-anchor="middle" dominant-baseline="middle" fill="#333">A</text>
      <rect x="8.00" y="256.00" width="68.91" height="54.00" fill="white" stroke="#333" stroke-width="1.00" stroke-linejoin="round" />
      <text x="42.45" y="283.00" text-anchor="middle" dominant-baseline="middle" fill="#333">B</text>
    </g>
    <g class="edgeLabels">
      <rect x="-61.21" y="189.00" width="207.33" height="52.00" fill="white" />
      <text x="42.45" y="203.00" text-anchor="middle" dominant-baseline="middle" fill="#333">this is a deliberately long</text>
      <text x="42.45" y="227.00" text-anchor="middle" dominant-baseline="middle" fill="#333">label</text>
      <rect x="-38.05" y="130.39" width="195.46" height="52.00" fill="white" />
      <text x="59.68" y="144.39" text-anchor="middle" dominant-baseline="middle" fill="#333">another deliberately long</text>
      <text x="59.68" y="168.39" text-anchor="middle" dominant-baseline="middle" fill="#333">reply label</text>
    </g>
  </g>
</svg>
