<svg xmlns="http://www.w3.org/2000/svg" width="100%" viewBox="0 0 308.27 372.00" style="max-width: 308.27px; background-color: transparent;" font-family="&quot;trebuchet ms&quot;, verdana, arial, sans-serif" font-size="16.00">
  <defs>
    <marker id="arrowhead" viewBox="0 0 10.00 10.00" refX="5.00" refY="5.00" markerWidth="8.00" markerHeight="8.00" orient="auto-start-reverse" markerUnits="userSpaceOnUse">
      <path d="M 0 0 L 10.00 5.00 L 0 10.00 z" fill="#333" />
    </marker>
  </defs>
  <g transform="translate(-30.00,0.00)">
    <g class="clusters">
      <rect class="subgraph" x="38.00" y="114.00" width="292.27" height="250.00" fill="none" stroke="#888" stroke-width="1.00" />
      <text x="184.14" y="118.00" text-anchor="middle" dominant-baseline="hanging" fill="#333">Outer LR</text>
      <rect class="subgraph" x="216.36" y="145.00" width="98.91" height="204.00" fill="none" stroke="#888" stroke-width="1.00" />
      <text x="265.82" y="149.00" text-anchor="middle" dominant-baseline="hanging" fill="#333">Inner BT</text>
    </g>
    <g class="edgePaths">
      <path d="M265.82,280.00 L265.82,277.22 C265.82,274.44 265.82,268.89 265.82,263.89 C265.82,258.89 265.82,254.44 265.82,249.56 C265.82,244.67 265.82,239.33 265.82,236.67 L265.82,234.00" stroke="#333" stroke-width="1.00" fill="none" stroke-linecap="round" stroke-linejoin="round" marker-end="url(#arrowhead)" />
      <path d="M121.91,307.00 L127.99,307.00 C134.07,307.00 146.23,307.00 158.39,307.00 C170.56,307.00 182.72,307.00 194.21,307.00 C205.71,307.00 216.53,307.00 221.95,307.00 L227.36,307.00" stroke="#333" stroke-width="1.00" fill="none" stroke-linecap="round" stroke-linejoin="round" marker-end="url(#arrowhead)" />
      <path d="M184.14,62.00 L184.14,80.00 L184.14,109.67 C184.14,139.33 184.14,198.67 168.02,228.33 C151.91,258.00 119.68,258.00 103.57,258.00 L87.45,258.00 L87.45,276.00" stroke="#333" stroke-width="1.00" fill="none" stroke-linecap="round" stroke-linejoin="round" marker-end="url(#arrowhead)" />
    </g>
    <g class="nodes">
      <rect x="231.36" y="280.00" width="68.91" height="54.00" fill="white" stroke="#333" stroke-width="1.00" stroke-linejoin="round" />
      <text x="265.82" y="307.00" text-anchor="middle" dominant-baseline="middle" fill="#333">A</text>
      <rect x="231.36" y="176.00" width="68.91" height="54.00" fill="white" stroke="#333" stroke-width="1.00" stroke-linejoin="round" />
      <text x="265.82" y="203.00" text-anchor="middle" dominant-baseline="middle" fill="#333">B</text>
      <rect x="53.00" y="280.00" width="68.91" height="54.00" fill="white" stroke="#333" stroke-width="1.00" stroke-linejoin="round" />
      <text x="87.45" y="307.00" text-anchor="middle" dominant-baseline="middle" fill="#333">C</text>
      <rect x="149.68" y="8.00" width="68.91" height="54.00" fill="white" stroke="#333" stroke-width="1.00" stroke-linejoin="round" />
      <text x="184.14" y="35.00" text-anchor="middle" dominant-baseline="middle" fill="#333">D</text>
    </g>
    <g class="edgeLabels">
    </g>
  </g>
</svg>
