<svg xmlns="http://www.w3.org/2000/svg" width="100%" viewBox="0 0 235.63 426.00" style="max-width: 235.63px; background-color: transparent;" font-family="&quot;trebuchet ms&quot;, verdana, arial, sans-serif" font-size="16.00">
  <defs>
    <marker id="seq-arrowhead" viewBox="0 0 10 10" refX="10" refY="5" markerWidth="8" markerHeight="8" orient="auto-start-reverse" markerUnits="userSpaceOnUse">
      <path d="M 0 0 L 10 5 L 0 10 z" fill="#333" />
    </marker>
  </defs>
  <g class="lifelines">
    <line x1="43.63" y1="54.00" x2="43.63" y2="416.00" stroke="#333" stroke-width="1" stroke-dasharray="5,5" />
    <line x1="193.63" y1="54.00" x2="193.63" y2="416.00" stroke="#333" stroke-width="1" stroke-dasharray="5,5" />
  </g>
  <g class="blocks">
    <rect x="11.63" y="124.00" width="214.00" height="228.00" fill="none" stroke="#666" stroke-width="1" stroke-dasharray="3,3" />
    <polygon points="11.63,124.00 53.63,124.00 53.63,137.00 45.23,144.00 11.63,144.00" fill="white" stroke="#666" stroke-width="1" />
    <text x="32.63" y="134.00" text-anchor="middle" dominant-baseline="middle" fill="#333">alt</text>
    <text x="139.63" y="139.00" text-anchor="middle" dominant-baseline="middle" fill="#333">[available]</text>
    <line x1="11.63" y1="238.00" x2="225.63" y2="238.00" stroke="#666" stroke-width="1" stroke-dasharray="3,3" />
    <text x="118.63" y="253.00" text-anchor="middle" dominant-baseline="middle" fill="#333">[busy]</text>
  </g>
  <g class="participants">
    <rect x="10.00" y="10.00" width="67.26" height="44.00" fill="white" stroke="#333" stroke-width="1" />
    <text x="43.63" y="32.00" text-anchor="middle" dominant-baseline="middle" fill="#333">Alice</text>
    <rect x="164.64" y="10.00" width="57.98" height="44.00" fill="white" stroke="#333" stroke-width="1" />
    <text x="193.63" y="32.00" text-anchor="middle" dominant-baseline="middle" fill="#333">Bob</text>
  </g>
  <g class="events">
    <line x1="43.63" y1="74.00" x2="193.63" y2="74.00" stroke="#333" stroke-width="1" marker-end="url(#seq-arrowhead)"/>
    <text x="118.63" y="70.00" text-anchor="middle" dominant-baseline="auto" fill="#333">Check status</text>
    <line x1="193.63" y1="188.00" x2="43.63" y2="188.00" stroke="#333" stroke-width="1" marker-end="url(#seq-arrowhead)"/>
    <text x="118.63" y="184.00" text-anchor="middle" dominant-baseline="auto" fill="#333">Available</text>
    <line x1="193.63" y1="302.00" x2="43.63" y2="302.00" stroke="#333" stroke-width="1" stroke-dasharray="6,4" marker-end="url(#seq-arrowhead)"/>
    <text x="118.63" y="298.00" text-anchor="middle" dominant-baseline="auto" fill="#333">Busy</text>
  </g>
</svg>
