<svg xmlns="http://www.w3.org/2000/svg" width="100%" viewBox="0 0 282.00 440.00" style="max-width: 282.00px; background-color: transparent;" font-family="&quot;trebuchet ms&quot;, verdana, arial, sans-serif" font-size="16.00">
  <defs>
    <marker id="seq-arrowhead" viewBox="0 0 10 10" refX="10" refY="5" markerWidth="8" markerHeight="8" orient="auto-start-reverse" markerUnits="userSpaceOnUse">
      <path d="M 0 0 L 10 5 L 0 10 z" fill="#333" />
    </marker>
    <marker id="seq-open-arrowhead" viewBox="0 0 10 10" refX="10" refY="5" markerWidth="8" markerHeight="8" orient="auto-start-reverse" markerUnits="userSpaceOnUse">
      <polygon points="0,0 10,5 0,10" fill="white" stroke="#333" stroke-width="1" />
    </marker>
    <marker id="seq-crosshead" viewBox="0 0 11 11" refX="11" refY="5.5" markerWidth="11" markerHeight="11" orient="auto-start-reverse" markerUnits="userSpaceOnUse">
      <path d="M 1,1 l 9,9 M 10,1 l -9,9" stroke="#333" stroke-width="2" />
    </marker>
    <marker id="seq-async-arrowhead" viewBox="0 0 10 10" refX="10" refY="5" markerWidth="8" markerHeight="8" orient="auto-start-reverse" markerUnits="userSpaceOnUse">
      <path d="M 0 0 L 10 5 L 0 10" fill="none" stroke="#333" stroke-width="1.5" />
    </marker>
  </defs>
  <g class="lifelines">
    <line x1="66.00" y1="54.00" x2="66.00" y2="430.00" stroke="#333" stroke-width="1" stroke-dasharray="5,5" />
    <line x1="216.00" y1="54.00" x2="216.00" y2="430.00" stroke="#333" stroke-width="1" stroke-dasharray="5,5" />
  </g>
  <g class="blocks">
    <rect x="10.00" y="74.00" width="262.00" height="292.00" fill="none" stroke="#666" stroke-width="1" stroke-dasharray="3,3" />
    <polygon points="10.00,74.00 58.00,74.00 58.00,87.00 49.60,94.00 10.00,94.00" fill="white" stroke="#666" stroke-width="1" />
    <text x="34.00" y="84.00" text-anchor="middle" dominant-baseline="middle" fill="#333">loop</text>
    <text x="165.00" y="89.00" text-anchor="middle" dominant-baseline="middle" fill="#333">[Retries]</text>
    <rect x="42.00" y="188.00" width="198.00" height="114.00" fill="none" stroke="#666" stroke-width="1" stroke-dasharray="3,3" />
    <polygon points="42.00,188.00 98.00,188.00 98.00,201.00 89.60,208.00 42.00,208.00" fill="white" stroke="#666" stroke-width="1" />
    <text x="70.00" y="198.00" text-anchor="middle" dominant-baseline="middle" fill="#333">break</text>
    <text x="169.00" y="203.00" text-anchor="middle" dominant-baseline="middle" fill="#333">[Success]</text>
  </g>
  <g class="participants">
    <rect x="32.37" y="10.00" width="67.26" height="44.00" fill="white" stroke="#333" stroke-width="1" />
    <text x="66.00" y="32.00" text-anchor="middle" dominant-baseline="middle" fill="#333">Alice</text>
    <rect x="187.01" y="10.00" width="57.98" height="44.00" fill="white" stroke="#333" stroke-width="1" />
    <text x="216.00" y="32.00" text-anchor="middle" dominant-baseline="middle" fill="#333">Bob</text>
  </g>
  <g class="events">
    <line x1="66.00" y1="138.00" x2="216.00" y2="138.00" stroke="#333" stroke-width="1" marker-end="url(#seq-arrowhead)" />
    <text x="141.00" y="134.00" text-anchor="middle" dominant-baseline="auto" fill="#333">Try</text>
    <line x1="216.00" y1="252.00" x2="66.00" y2="252.00" stroke="#333" stroke-width="1" marker-end="url(#seq-arrowhead)" />
    <text x="141.00" y="248.00" text-anchor="middle" dominant-baseline="auto" fill="#333">Done</text>
  </g>
</svg>
