<svg xmlns="http://www.w3.org/2000/svg" width="100%" viewBox="0 0 336.94 406.00" style="max-width: 336.94px; background-color: transparent;" font-family="&quot;trebuchet ms&quot;, verdana, arial, sans-serif" font-size="16.00">
  <defs>
    <marker id="seq-arrowhead" viewBox="0 0 10 10" refX="10" refY="5" markerWidth="8" markerHeight="8" orient="auto-start-reverse" markerUnits="userSpaceOnUse">
      <path d="M 0 0 L 10 5 L 0 10 z" fill="#333" />
    </marker>
    <marker id="seq-open-arrowhead" viewBox="0 0 10 10" refX="10" refY="5" markerWidth="8" markerHeight="8" orient="auto-start-reverse" markerUnits="userSpaceOnUse">
      <polygon points="0,0 10,5 0,10" fill="white" stroke="#333" stroke-width="1" />
    </marker>
    <marker id="seq-crosshead" viewBox="0 0 11 11" refX="11" refY="5.5" markerWidth="11" markerHeight="11" orient="auto-start-reverse" markerUnits="userSpaceOnUse">
      <path d="M 1,1 l 9,9 M 10,1 l -9,9" stroke="#333" stroke-width="2" />
    </marker>
    <marker id="seq-async-arrowhead" viewBox="0 0 10 10" refX="10" refY="5" markerWidth="8" markerHeight="8" orient="auto-start-reverse" markerUnits="userSpaceOnUse">
      <path d="M 0 0 L 10 5 L 0 10" fill="none" stroke="#333" stroke-width="1.5" />
    </marker>
  </defs>
  <g class="lifelines">
    <line x1="43.63" y1="54.00" x2="43.63" y2="396.00" stroke="#333" stroke-width="1" stroke-dasharray="5,5" />
    <line x1="193.63" y1="54.00" x2="193.63" y2="396.00" stroke="#333" stroke-width="1" stroke-dasharray="5,5" />
  </g>
  <g class="blocks">
    <rect x="11.63" y="74.00" width="315.31" height="258.00" fill="none" stroke="#666" stroke-width="1" stroke-dasharray="3,3" />
    <polygon points="11.63,74.00 91.63,74.00 91.63,87.00 83.23,94.00 11.63,94.00" fill="white" stroke="#666" stroke-width="1" />
    <text x="51.63" y="84.00" text-anchor="middle" dominant-baseline="middle" fill="#333">critical</text>
    <text x="209.29" y="89.00" text-anchor="middle" dominant-baseline="middle" fill="#333">[Establish connection]</text>
    <line x1="11.63" y1="188.00" x2="326.94" y2="188.00" stroke="#666" stroke-width="1" stroke-dasharray="3,3" />
    <text x="169.29" y="203.00" text-anchor="middle" dominant-baseline="middle" fill="#333">[Timeout]</text>
  </g>
  <g class="participants">
    <rect x="10.00" y="10.00" width="67.26" height="44.00" fill="white" stroke="#333" stroke-width="1" />
    <text x="43.63" y="32.00" text-anchor="middle" dominant-baseline="middle" fill="#333">Alice</text>
    <rect x="164.64" y="10.00" width="57.98" height="44.00" fill="white" stroke="#333" stroke-width="1" />
    <text x="193.63" y="32.00" text-anchor="middle" dominant-baseline="middle" fill="#333">Bob</text>
  </g>
  <g class="events">
    <line x1="43.63" y1="138.00" x2="193.63" y2="138.00" stroke="#333" stroke-width="1" marker-end="url(#seq-arrowhead)" />
    <text x="118.63" y="134.00" text-anchor="middle" dominant-baseline="auto" fill="#333">Connect</text>
    <path d="M 43.63 252.00 L 73.63 252.00 L 73.63 282.00 L 43.63 282.00" fill="none" stroke="#333" stroke-width="1" marker-end="url(#seq-arrowhead)" />
    <text x="81.63" y="256.00" text-anchor="start" dominant-baseline="auto" fill="#333">Retry</text>
  </g>
</svg>
