<svg xmlns="http://www.w3.org/2000/svg" width="100%" viewBox="0 0 568.25 736.28" style="max-width: 568.25px; background-color: transparent;" font-family="&quot;trebuchet ms&quot;, verdana, arial, sans-serif" font-size="16.00">
  <defs>
    <marker id="arrowhead" viewBox="0 0 10.00 10.00" refX="5.00" refY="5.00" markerWidth="8.00" markerHeight="8.00" orient="auto-start-reverse" markerUnits="userSpaceOnUse">
      <path d="M 0 0 L 10.00 5.00 L 0 10.00 z" fill="#333" />
    </marker>
  </defs>
  <g transform="translate(0.00,0.00)">
    <g class="edgePaths">
      <path d="M255.25,62.00 L255.25,108.00" stroke="#333" stroke-width="1.00" fill="none" stroke-linecap="round" stroke-linejoin="round" marker-end="url(#arrowhead)" />
      <path d="M300.46,179.07 L449.77,179.07 L449.77,298.28" stroke="#333" stroke-width="1.00" fill="none" stroke-linecap="round" stroke-linejoin="round" marker-end="url(#arrowhead)" />
      <path d="M217.26,186.29 L156.83,186.29 L156.83,298.28" stroke="#333" stroke-width="1.00" fill="none" stroke-linecap="round" stroke-linejoin="round" marker-end="url(#arrowhead)" />
      <path d="M454.98,356.28 L454.98,406.28" stroke="#333" stroke-width="1.00" fill="none" stroke-linecap="round" stroke-linejoin="round" marker-end="url(#arrowhead)" />
      <path d="M531.45,475.78 L543.45,475.78 L543.45,35.00 L309.48,35.00" stroke="#333" stroke-width="1.00" fill="none" stroke-linecap="round" stroke-linejoin="round" marker-end="url(#arrowhead)" />
      <path d="M417.10,500.44 L300.45,500.44 L300.45,670.28" stroke="#333" stroke-width="1.00" fill="none" stroke-linecap="round" stroke-linejoin="round" marker-end="url(#arrowhead)" />
      <path d="M97.90,356.28 L97.90,402.28" stroke="#333" stroke-width="1.00" fill="none" stroke-linecap="round" stroke-linejoin="round" stroke-dasharray="2.00,4.00" marker-end="url(#arrowhead)" />
      <path d="M212.55,356.28 L212.55,367.68 L237.00,367.68 L237.00,402.28" stroke="#333" stroke-width="2.00" fill="none" stroke-linecap="round" stroke-linejoin="round" marker-end="url(#arrowhead)" />
      <path d="M86.71,460.28 L86.71,477.68 L106.71,477.68 L106.71,566.28" stroke="#333" stroke-width="1.00" fill="none" stroke-linecap="round" stroke-linejoin="round" marker-end="url(#arrowhead)" />
      <path d="M247.29,460.28 L247.29,477.68 L206.95,477.68 L206.95,566.28" stroke="#333" stroke-width="1.00" fill="none" stroke-linecap="round" stroke-linejoin="round" marker-end="url(#arrowhead)" />
      <path d="M182.38,624.28 L182.38,635.68 L210.05,635.68 L210.05,670.28" stroke="#333" stroke-width="1.00" fill="none" stroke-linecap="round" stroke-linejoin="round" marker-end="url(#arrowhead)" />
    </g>
    <g class="nodes">
      <rect x="205.02" y="8.00" width="100.46" height="54.00" fill="white" stroke="#333" stroke-width="1.00" stroke-linejoin="round" />
      <text x="255.25" y="35.00" text-anchor="middle" dominant-baseline="middle" fill="#333">Input</text>
      <polygon points="255.25,112.00 311.39,168.14 255.25,224.28 199.11,168.14" fill="white" stroke="#333" stroke-width="1.00" stroke-linejoin="round" />
      <text x="255.25" y="168.14" text-anchor="middle" dominant-baseline="middle" fill="#333">Validate</text>
      <rect x="391.00" y="302.28" width="117.54" height="54.00" fill="white" stroke="#333" stroke-width="1.00" stroke-linejoin="round" />
      <text x="449.77" y="329.28" text-anchor="middle" dominant-baseline="middle" fill="#333">Process</text>
      <rect x="93.11" y="302.28" width="127.44" height="54.00" rx="5.00" ry="5.00" fill="white" stroke="#333" stroke-width="1.00" stroke-linejoin="round" />
      <text x="156.83" y="329.28" text-anchor="middle" dominant-baseline="middle" fill="#333">Error Handler</text>
      <polygon points="461.94,406.28 531.45,475.78 461.94,545.28 392.44,475.78" fill="white" stroke="#333" stroke-width="1.00" stroke-linejoin="round" />
      <text x="461.94" y="475.78" text-anchor="middle" dominant-baseline="middle" fill="#333">More Data?</text>
      <rect x="202.05" y="674.28" width="106.40" height="54.00" fill="white" stroke="#333" stroke-width="1.00" stroke-linejoin="round" />
      <text x="255.25" y="701.28" text-anchor="middle" dominant-baseline="middle" fill="#333">Output</text>
      <rect x="8.00" y="406.28" width="129.79" height="54.00" fill="white" stroke="#333" stroke-width="1.00" stroke-linejoin="round" />
      <text x="72.89" y="433.28" text-anchor="middle" dominant-baseline="middle" fill="#333">Log Error</text>
      <rect x="187.79" y="406.28" width="154.66" height="54.00" fill="white" stroke="#333" stroke-width="1.00" stroke-linejoin="round" />
      <text x="265.11" y="433.28" text-anchor="middle" dominant-baseline="middle" fill="#333">Notify Admin</text>
      <rect x="98.71" y="570.28" width="116.24" height="54.00" fill="white" stroke="#333" stroke-width="1.00" stroke-linejoin="round" />
      <text x="156.83" y="597.28" text-anchor="middle" dominant-baseline="middle" fill="#333">Cleanup</text>
    </g>
    <g class="edgeLabels">
      <rect x="428.33" y="232.78" width="42.89" height="28.00" fill="white" />
      <text x="449.77" y="246.78" text-anchor="middle" dominant-baseline="middle" fill="#333">valid</text>
      <rect x="128.80" y="232.78" width="56.07" height="28.00" fill="white" />
      <text x="156.83" y="246.78" text-anchor="middle" dominant-baseline="middle" fill="#333">invalid</text>
      <rect x="543.54" y="318.78" width="33.61" height="28.00" fill="white" />
      <text x="560.35" y="332.78" text-anchor="middle" dominant-baseline="middle" fill="#333">yes</text>
      <rect x="449.41" y="553.78" width="25.08" height="28.00" fill="white" />
      <text x="461.94" y="567.78" text-anchor="middle" dominant-baseline="middle" fill="#333">no</text>
    </g>
  </g>
</svg>
