<svg xmlns="http://www.w3.org/2000/svg" width="100%" viewBox="0 0 297.44 442.36" style="max-width: 297.44px; background-color: transparent;" font-family="&quot;trebuchet ms&quot;, verdana, arial, sans-serif" font-size="16.00">
  <defs>
    <marker id="arrowhead" viewBox="0 0 10.00 10.00" refX="5.00" refY="5.00" markerWidth="8.00" markerHeight="8.00" orient="auto-start-reverse" markerUnits="userSpaceOnUse">
      <path d="M 0 0 L 10.00 5.00 L 0 10.00 z" fill="#333" />
    </marker>
  </defs>
  <g transform="translate(0.00,0.00)">
    <g class="edgePaths">
      <path d="M95.12,62.00 L95.12,110.81" stroke="#333" stroke-width="1.00" fill="none" stroke-linecap="round" stroke-linejoin="round" marker-end="url(#arrowhead)" />
      <path d="M72.90,259.58 L73.13,259.58 L73.13,376.36" stroke="#333" stroke-width="1.00" fill="none" stroke-linecap="round" stroke-linejoin="round" marker-end="url(#arrowhead)" />
      <path d="M143.79,224.25 L205.77,224.25 L205.77,376.36" stroke="#333" stroke-width="1.00" fill="none" stroke-linecap="round" stroke-linejoin="round" marker-end="url(#arrowhead)" />
      <path d="M277.44,407.36 L289.44,407.36 L289.44,35.00 L149.62,35.00" stroke="#333" stroke-width="1.00" fill="none" stroke-linecap="round" stroke-linejoin="round" marker-end="url(#arrowhead)" />
    </g>
    <g class="nodes">
      <rect x="50.36" y="8.00" width="95.26" height="54.00" fill="white" stroke="#333" stroke-width="1.00" stroke-linejoin="round" />
      <text x="97.99" y="35.00" text-anchor="middle" dominant-baseline="middle" fill="#333">Start</text>
      <polygon points="90.68,112.00 173.36,194.68 90.68,277.36 8.00,194.68" fill="white" stroke="#333" stroke-width="1.00" stroke-linejoin="round" />
      <text x="90.68" y="194.68" text-anchor="middle" dominant-baseline="middle" fill="#333">Is it working?</text>
      <rect x="21.88" y="380.36" width="102.50" height="54.00" fill="white" stroke="#333" stroke-width="1.00" stroke-linejoin="round" />
      <text x="73.13" y="407.36" text-anchor="middle" dominant-baseline="middle" fill="#333">Great!</text>
      <rect x="174.38" y="380.36" width="103.06" height="54.00" fill="white" stroke="#333" stroke-width="1.00" stroke-linejoin="round" />
      <text x="225.91" y="407.36" text-anchor="middle" dominant-baseline="middle" fill="#333">Debug</text>
    </g>
    <g class="edgeLabels">
      <rect x="56.14" y="285.86" width="33.98" height="28.00" fill="white" />
      <text x="73.13" y="299.86" text-anchor="middle" dominant-baseline="middle" fill="#333">Yes</text>
      <rect x="193.04" y="255.32" width="25.45" height="28.00" fill="white" />
      <text x="205.77" y="269.32" text-anchor="middle" dominant-baseline="middle" fill="#333">No</text>
    </g>
  </g>
</svg>
