<svg xmlns="http://www.w3.org/2000/svg" width="100%" viewBox="0 0 298.84 486.00" style="max-width: 298.84px; background-color: transparent;" font-family="&quot;trebuchet ms&quot;, verdana, arial, sans-serif" font-size="16.00">
  <defs>
    <marker id="arrowhead" viewBox="0 0 10.00 10.00" refX="5.00" refY="5.00" markerWidth="8.00" markerHeight="8.00" orient="auto-start-reverse" markerUnits="userSpaceOnUse">
      <path d="M 0 0 L 10.00 5.00 L 0 10.00 z" fill="#333" />
    </marker>
  </defs>
  <g transform="translate(0.00,0.00)">
    <g class="edgePaths">
      <path d="M117.00,224.00 L145.71,224.00 L145.71,216.00 L145.71,54.00 L163.00,54.00" stroke="#333" stroke-width="1.00" fill="none" stroke-linecap="round" stroke-linejoin="round" marker-end="url(#arrowhead)" />
      <path d="M117.00,229.50 L145.71,229.50 L145.71,158.00 L163.00,158.00" stroke="#333" stroke-width="1.00" fill="none" stroke-linecap="round" stroke-linejoin="round" marker-end="url(#arrowhead)" />
      <path d="M117.00,243.00 L163.00,243.00" stroke="#333" stroke-width="1.00" fill="none" stroke-linecap="round" stroke-linejoin="round" marker-end="url(#arrowhead)" />
      <path d="M117.00,256.50 L145.71,256.50 L145.71,328.00 L163.00,328.00" stroke="#333" stroke-width="1.00" fill="none" stroke-linecap="round" stroke-linejoin="round" marker-end="url(#arrowhead)" />
      <path d="M117.00,262.00 L145.71,262.00 L145.71,270.00 L145.71,432.00 L163.00,432.00" stroke="#333" stroke-width="1.00" fill="none" stroke-linecap="round" stroke-linejoin="round" marker-end="url(#arrowhead)" />
    </g>
    <g class="nodes">
      <rect x="8.00" y="216.00" width="109.00" height="54.00" fill="white" stroke="#333" stroke-width="1.00" stroke-linejoin="round" />
      <text x="62.50" y="243.00" text-anchor="middle" dominant-baseline="middle" fill="#333">Source</text>
      <rect x="167.00" y="8.00" width="123.85" height="54.00" fill="white" stroke="#333" stroke-width="1.00" stroke-linejoin="round" />
      <text x="228.92" y="35.00" text-anchor="middle" dominant-baseline="middle" fill="#333">Target A</text>
      <rect x="167.00" y="112.00" width="123.85" height="54.00" fill="white" stroke="#333" stroke-width="1.00" stroke-linejoin="round" />
      <text x="228.92" y="139.00" text-anchor="middle" dominant-baseline="middle" fill="#333">Target B</text>
      <rect x="167.00" y="216.00" width="123.85" height="54.00" fill="white" stroke="#333" stroke-width="1.00" stroke-linejoin="round" />
      <text x="228.92" y="243.00" text-anchor="middle" dominant-baseline="middle" fill="#333">Target C</text>
      <rect x="167.00" y="320.00" width="123.85" height="54.00" fill="white" stroke="#333" stroke-width="1.00" stroke-linejoin="round" />
      <text x="228.92" y="347.00" text-anchor="middle" dominant-baseline="middle" fill="#333">Target D</text>
      <rect x="167.00" y="424.00" width="123.85" height="54.00" fill="white" stroke="#333" stroke-width="1.00" stroke-linejoin="round" />
      <text x="228.92" y="451.00" text-anchor="middle" dominant-baseline="middle" fill="#333">Target E</text>
    </g>
    <g class="edgeLabels">
    </g>
  </g>
</svg>
