<svg xmlns="http://www.w3.org/2000/svg" width="100%" viewBox="0 0 1052.17 1949.78" style="max-width: 1052.17px; background-color: transparent;" font-family="&quot;trebuchet ms&quot;, verdana, arial, sans-serif" font-size="16.00">
  <defs>
    <marker id="arrowhead" viewBox="0 0 10.00 10.00" refX="5.00" refY="5.00" markerWidth="8.00" markerHeight="8.00" orient="auto-start-reverse" markerUnits="userSpaceOnUse">
      <path d="M 0 0 L 10.00 5.00 L 0 10.00 z" fill="#333" />
    </marker>
  </defs>
  <g transform="translate(0.00,0.00)">
    <g class="edgePaths">
      <path d="M519.80,73.26 L519.80,119.26" stroke="#333" stroke-width="1.00" fill="none" stroke-linecap="round" stroke-linejoin="round" marker-end="url(#arrowhead)" />
      <path d="M443.36,177.26 L443.36,223.26" stroke="#333" stroke-width="1.00" fill="none" stroke-linecap="round" stroke-linejoin="round" marker-end="url(#arrowhead)" />
      <path d="M495.34,281.26 L495.34,490.94 L532.60,490.94 L532.60,516.54" stroke="#333" stroke-width="1.00" fill="none" stroke-linecap="round" stroke-linejoin="round" marker-end="url(#arrowhead)" />
      <path d="M469.33,555.07 L268.80,555.07 L268.80,705.07" stroke="#333" stroke-width="1.00" fill="none" stroke-linecap="round" stroke-linejoin="round" marker-end="url(#arrowhead)" />
      <path d="M223.60,763.07 L223.60,783.32 L237.54,783.32 L237.54,897.59" stroke="#333" stroke-width="1.00" fill="none" stroke-linecap="round" stroke-linejoin="round" stroke-dasharray="2.00,4.00" marker-end="url(#arrowhead)" />
      <path d="M314.00,763.07 L314.00,1743.66 L373.60,1743.66 L373.60,1769.26" stroke="#333" stroke-width="1.00" fill="none" stroke-linecap="round" stroke-linejoin="round" marker-end="url(#arrowhead)" />
      <path d="M544.86,561.53 L622.23,561.53 L622.23,705.07" stroke="#333" stroke-width="1.00" fill="none" stroke-linecap="round" stroke-linejoin="round" marker-end="url(#arrowhead)" />
      <path d="M572.09,796.44 L455.10,796.44 L455.10,1001.59" stroke="#333" stroke-width="1.00" fill="none" stroke-linecap="round" stroke-linejoin="round" marker-end="url(#arrowhead)" />
      <path d="M665.25,803.57 L725.91,803.57 L725.91,1001.59" stroke="#333" stroke-width="1.00" fill="none" stroke-linecap="round" stroke-linejoin="round" marker-end="url(#arrowhead)" />
      <path d="M711.95,1059.59 L711.95,1087.09 L683.52,1087.09 L683.52,1110.59" stroke="#333" stroke-width="1.00" fill="none" stroke-linecap="round" stroke-linejoin="round" marker-end="url(#arrowhead)" />
      <path d="M669.56,1168.59 L669.56,1219.59" stroke="#333" stroke-width="1.00" fill="none" stroke-linecap="round" stroke-linejoin="round" marker-end="url(#arrowhead)" />
      <path d="M601.53,1277.59 L601.53,1291.78 L619.86,1291.78 L619.86,1351.51" stroke="#333" stroke-width="1.00" fill="none" stroke-linecap="round" stroke-linejoin="round" marker-end="url(#arrowhead)" />
      <path d="M635.47,1436.73 L635.47,1653.26 L726.93,1653.26 L726.93,1665.26" stroke="#333" stroke-width="1.00" fill="none" stroke-linecap="round" stroke-linejoin="round" marker-end="url(#arrowhead)" />
      <path d="M798.24,1696.26 L846.55,1696.26 L846.55,1032.59 L807.24,1032.59" stroke="#333" stroke-width="2.00" fill="none" stroke-linecap="round" stroke-linejoin="round" marker-end="url(#arrowhead)" />
      <path d="M594.64,1452.96 L547.84,1452.96 L547.84,1665.26" stroke="#333" stroke-width="1.00" fill="none" stroke-linecap="round" stroke-linejoin="round" marker-end="url(#arrowhead)" />
      <path d="M455.10,1059.59 L455.10,1665.26" stroke="#333" stroke-width="1.00" fill="none" stroke-linecap="round" stroke-linejoin="round" marker-end="url(#arrowhead)" />
      <path d="M457.70,1723.26 L457.70,1734.66 L473.50,1734.66 L473.50,1769.26" stroke="#333" stroke-width="1.00" fill="none" stroke-linecap="round" stroke-linejoin="round" marker-end="url(#arrowhead)" />
      <path d="M346.11,281.26 L346.11,292.66 L163.19,292.66 L163.19,327.26" stroke="#333" stroke-width="1.00" fill="none" stroke-linecap="round" stroke-linejoin="round" marker-end="url(#arrowhead)" />
      <path d="M16.00,385.26 L16.00,441.76 L89.60,441.76 L89.60,494.26" stroke="#333" stroke-width="1.00" fill="none" stroke-linecap="round" stroke-linejoin="round" marker-end="url(#arrowhead)" />
      <path d="M89.60,552.26 L89.60,1753.26 L342.56,1753.26 L342.56,1769.26" stroke="#333" stroke-width="1.00" fill="none" stroke-linecap="round" stroke-linejoin="round" marker-end="url(#arrowhead)" />
      <path d="M163.19,385.26 L163.19,490.26 L488.05,490.26 L488.05,516.54" stroke="#333" stroke-width="1.00" fill="none" stroke-linecap="round" stroke-linejoin="round" marker-end="url(#arrowhead)" />
      <path d="M599.34,177.26 L599.34,188.66 L921.08,188.66 L921.08,223.26" stroke="#333" stroke-width="1.00" fill="none" stroke-linecap="round" stroke-linejoin="round" marker-end="url(#arrowhead)" />
      <path d="M978.63,281.26 L978.63,1761.26 L482.70,1761.26 L482.70,1769.26" stroke="#333" stroke-width="1.00" fill="none" stroke-linecap="round" stroke-linejoin="round" marker-end="url(#arrowhead)" />
      <path d="M737.59,1277.59 L737.59,1310.25 L756.85,1310.25 L756.85,1536.26" stroke="#333" stroke-width="1.00" fill="none" stroke-linecap="round" stroke-linejoin="round" marker-end="url(#arrowhead)" />
      <path d="M782.87,1594.26 L806.24,1594.26 L806.24,1757.26 L451.67,1757.26 L451.67,1769.26" stroke="#333" stroke-width="1.00" fill="none" stroke-linecap="round" stroke-linejoin="round" stroke-dasharray="2.00,4.00" marker-end="url(#arrowhead)" />
      <path d="M412.63,1827.26 L412.63,1873.26" stroke="#333" stroke-width="1.00" fill="none" stroke-linecap="round" stroke-linejoin="round" marker-end="url(#arrowhead)" />
    </g>
    <g class="nodes">
      <ellipse cx="412.63" cy="1909.52" rx="32.26" ry="32.26" fill="white" stroke="#333" stroke-width="1.00" stroke-linejoin="round" />
      <text x="412.63" y="1909.52" text-anchor="middle" dominant-baseline="middle" fill="#333">Done</text>
      <rect x="679.15" y="1540.26" width="155.40" height="54.00" fill="white" stroke="#333" stroke-width="1.00" stroke-linejoin="round" />
      <text x="756.85" y="1567.26" text-anchor="middle" dominant-baseline="middle" fill="#333">Page On-call</text>
      <rect x="913.08" y="227.26" width="131.08" height="54.00" fill="white" stroke="#333" stroke-width="1.00" stroke-linejoin="round" />
      <text x="978.63" y="254.26" text-anchor="middle" dominant-baseline="middle" fill="#333">Audit Log</text>
      <rect x="8.00" y="331.26" width="163.19" height="54.00" fill="white" stroke="#333" stroke-width="1.00" stroke-linejoin="round" />
      <text x="89.60" y="358.26" text-anchor="middle" dominant-baseline="middle" fill="#333">Lookup Cache</text>
      <rect x="9.30" y="498.26" width="160.60" height="54.00" fill="white" stroke="#333" stroke-width="1.00" stroke-linejoin="round" />
      <text x="89.60" y="525.26" text-anchor="middle" dominant-baseline="middle" fill="#333">Serve Cached</text>
      <rect x="432.27" y="123.26" width="175.07" height="54.00" fill="white" stroke="#333" stroke-width="1.00" stroke-linejoin="round" />
      <text x="519.80" y="150.26" text-anchor="middle" dominant-baseline="middle" fill="#333">Ingest Request</text>
      <rect x="334.56" y="1773.26" width="156.14" height="54.00" fill="white" stroke="#333" stroke-width="1.00" stroke-linejoin="round" />
      <text x="412.63" y="1800.26" text-anchor="middle" dominant-baseline="middle" fill="#333">Emit Metrics</text>
      <rect x="160.96" y="901.59" width="142.96" height="54.00" fill="white" stroke="#333" stroke-width="1.00" stroke-linejoin="round" />
      <text x="232.44" y="928.59" text-anchor="middle" dominant-baseline="middle" fill="#333">Notify User</text>
      <rect x="338.11" y="227.26" width="165.24" height="54.00" fill="white" stroke="#333" stroke-width="1.00" stroke-linejoin="round" />
      <text x="420.72" y="254.26" text-anchor="middle" dominant-baseline="middle" fill="#333">Parse Payload</text>
      <rect x="391.16" y="1669.26" width="164.68" height="54.00" fill="white" stroke="#333" stroke-width="1.00" stroke-linejoin="round" />
      <text x="473.50" y="1696.26" text-anchor="middle" dominant-baseline="middle" fill="#333">Persist Result</text>
      <rect x="593.53" y="1223.59" width="152.06" height="54.00" fill="white" stroke="#333" stroke-width="1.00" stroke-linejoin="round" />
      <text x="669.56" y="1250.59" text-anchor="middle" dominant-baseline="middle" fill="#333">Process Job</text>
      <rect x="648.58" y="1005.59" width="154.66" height="54.00" fill="white" stroke="#333" stroke-width="1.00" stroke-linejoin="round" />
      <text x="725.91" y="1032.59" text-anchor="middle" dominant-baseline="middle" fill="#333">Enqueue Job</text>
      <rect x="215.60" y="709.07" width="106.40" height="54.00" fill="white" stroke="#333" stroke-width="1.00" stroke-linejoin="round" />
      <text x="268.80" y="736.07" text-anchor="middle" dominant-baseline="middle" fill="#333">Reject</text>
      <rect x="700.38" y="1669.26" width="97.86" height="54.00" fill="white" stroke="#333" stroke-width="1.00" stroke-linejoin="round" />
      <text x="749.31" y="1696.26" text-anchor="middle" dominant-baseline="middle" fill="#333">Retry</text>
      <polygon points="622.23,709.07 690.99,777.83 622.23,846.59 553.47,777.83" fill="white" stroke="#333" stroke-width="1.00" stroke-linejoin="round" />
      <text x="622.23" y="777.83" text-anchor="middle" dominant-baseline="middle" fill="#333">Route Type</text>
      <ellipse cx="519.80" cy="40.63" rx="32.63" ry="32.63" fill="white" stroke="#333" stroke-width="1.00" stroke-linejoin="round" />
      <text x="519.80" y="40.63" text-anchor="middle" dominant-baseline="middle" fill="#333">Start</text>
      <polygon points="606.94,1342.59 668.28,1403.92 606.94,1465.26 545.60,1403.92" fill="white" stroke="#333" stroke-width="1.00" stroke-linejoin="round" />
      <text x="606.94" y="1403.92" text-anchor="middle" dominant-baseline="middle" fill="#333">Success?</text>
      <rect x="375.08" y="1005.59" width="160.04" height="54.00" fill="white" stroke="#333" stroke-width="1.00" stroke-linejoin="round" />
      <text x="455.10" y="1032.59" text-anchor="middle" dominant-baseline="middle" fill="#333">Sync Pipeline</text>
      <polygon points="510.32,498.26 559.22,547.16 510.32,596.07 461.42,547.16" fill="white" stroke="#333" stroke-width="1.00" stroke-linejoin="round" />
      <text x="510.32" y="547.16" text-anchor="middle" dominant-baseline="middle" fill="#333">Valid?</text>
      <rect x="594.74" y="1114.59" width="149.64" height="54.00" fill="white" stroke="#333" stroke-width="1.00" stroke-linejoin="round" />
      <text x="669.56" y="1141.59" text-anchor="middle" dominant-baseline="middle" fill="#333">Worker Pool</text>
    </g>
    <g class="edgeLabels">
      <rect x="281.52" y="541.07" width="25.08" height="28.00" fill="white" />
      <text x="294.06" y="555.07" text-anchor="middle" dominant-baseline="middle" fill="#333">no</text>
      <rect x="605.43" y="598.07" width="33.61" height="28.00" fill="white" />
      <text x="622.23" y="612.07" text-anchor="middle" dominant-baseline="middle" fill="#333">yes</text>
      <rect x="434.02" y="885.09" width="42.15" height="28.00" fill="white" />
      <text x="455.10" y="899.09" text-anchor="middle" dominant-baseline="middle" fill="#333">sync</text>
      <rect x="700.56" y="860.25" width="50.69" height="28.00" fill="white" />
      <text x="725.91" y="874.25" text-anchor="middle" dominant-baseline="middle" fill="#333">async</text>
      <rect x="622.93" y="1584.72" width="25.08" height="28.00" fill="white" />
      <text x="635.47" y="1598.72" text-anchor="middle" dominant-baseline="middle" fill="#333">no</text>
      <rect x="531.03" y="1521.71" width="33.61" height="28.00" fill="white" />
      <text x="547.84" y="1535.71" text-anchor="middle" dominant-baseline="middle" fill="#333">yes</text>
      <rect x="37.24" y="427.76" width="27.12" height="28.00" fill="white" />
      <text x="50.80" y="441.76" text-anchor="middle" dominant-baseline="middle" fill="#333">hit</text>
      <rect x="264.90" y="476.26" width="42.71" height="28.00" fill="white" />
      <text x="286.26" y="490.26" text-anchor="middle" dominant-baseline="middle" fill="#333">miss</text>
      <rect x="734.84" y="1385.29" width="44.01" height="28.00" fill="white" />
      <text x="756.85" y="1399.29" text-anchor="middle" dominant-baseline="middle" fill="#333">warn</text>
    </g>
  </g>
</svg>
