<svg xmlns="http://www.w3.org/2000/svg" width="100%" viewBox="0 0 169.35 373.40" style="max-width: 169.35px; background-color: transparent;" font-family="&quot;trebuchet ms&quot;, verdana, arial, sans-serif" font-size="16.00">
  <defs>
    <marker id="arrowhead" viewBox="0 0 10.00 10.00" refX="5.00" refY="5.00" markerWidth="8.00" markerHeight="8.00" orient="auto-start-reverse" markerUnits="userSpaceOnUse">
      <path d="M 0 0 L 10.00 5.00 L 0 10.00 z" fill="#333" />
    </marker>
  </defs>
  <g transform="translate(0.00,0.00)">
    <g class="edgePaths">
      <path d="M58.20,62.00 L58.20,108.00" stroke="#333" stroke-width="1.00" fill="none" stroke-linecap="round" stroke-linejoin="round" marker-end="url(#arrowhead)" />
      <path d="M89.86,143.66 L89.86,112.00 L143.90,112.00 L143.90,207.40 L141.73,207.40 L141.73,210.23 L139.59,210.23 L93.31,210.23 L93.31,182.77" stroke="#333" stroke-width="1.00" fill="none" stroke-linecap="round" stroke-linejoin="round" marker-end="url(#arrowhead)" />
      <path d="M58.20,212.40 L58.20,307.40" stroke="#333" stroke-width="1.00" fill="none" stroke-linecap="round" stroke-linejoin="round" marker-end="url(#arrowhead)" />
    </g>
    <g class="nodes">
      <rect x="10.57" y="8.00" width="95.26" height="54.00" fill="white" stroke="#333" stroke-width="1.00" stroke-linejoin="round" />
      <text x="58.20" y="35.00" text-anchor="middle" dominant-baseline="middle" fill="#333">Start</text>
      <polygon points="58.20,112.00 108.40,162.20 58.20,212.40 8.00,162.20" fill="white" stroke="#333" stroke-width="1.00" stroke-linejoin="round" />
      <text x="58.20" y="162.20" text-anchor="middle" dominant-baseline="middle" fill="#333">Retry?</text>
      <rect x="15.21" y="311.40" width="85.98" height="54.00" fill="white" stroke="#333" stroke-width="1.00" stroke-linejoin="round" />
      <text x="58.20" y="338.40" text-anchor="middle" dominant-baseline="middle" fill="#333">End</text>
    </g>
    <g class="edgeLabels">
      <rect x="122.45" y="148.20" width="42.89" height="28.00" fill="white" />
      <text x="143.90" y="162.20" text-anchor="middle" dominant-baseline="middle" fill="#333">retry</text>
      <rect x="37.12" y="235.40" width="42.15" height="28.00" fill="white" />
      <text x="58.20" y="249.40" text-anchor="middle" dominant-baseline="middle" fill="#333">done</text>
    </g>
  </g>
</svg>
