<svg xmlns="http://www.w3.org/2000/svg" width="100%" viewBox="0 0 1025.51 459.44" style="max-width: 1025.51px; background-color: transparent;" font-family="&quot;trebuchet ms&quot;, verdana, arial, sans-serif" font-size="16.00">
  <defs>
    <marker id="arrowhead" viewBox="0 0 10.00 10.00" refX="5.00" refY="5.00" markerWidth="8.00" markerHeight="8.00" orient="auto-start-reverse" markerUnits="userSpaceOnUse">
      <path d="M 0 0 L 10.00 5.00 L 0 10.00 z" fill="#333" />
    </marker>
  </defs>
  <g transform="translate(-35.00,-4.00)">
    <g class="clusters">
      <rect class="subgraph" x="43.00" y="33.35" width="376.66" height="286.45" fill="none" stroke="#888" stroke-width="1.00" />
      <text x="231.33" y="37.35" text-anchor="middle" dominant-baseline="hanging" fill="#333">Client Layer</text>
      <rect class="subgraph" x="849.70" y="12.00" width="202.81" height="443.44" fill="none" stroke="#888" stroke-width="1.00" />
      <text x="951.11" y="16.00" text-anchor="middle" dominant-baseline="hanging" fill="#333">Data Layer</text>
      <rect class="subgraph" x="539.66" y="17.17" width="190.04" height="383.58" fill="none" stroke="#888" stroke-width="1.00" />
      <text x="634.68" y="21.17" text-anchor="middle" dominant-baseline="hanging" fill="#333">Service Layer</text>
    </g>
    <g class="edgePaths">
      <path d="M179.59,110.35 L192.77,110.35 L192.77,118.35 L192.77,170.52 L243.41,170.52" stroke="#333" stroke-width="1.00" fill="none" stroke-linecap="round" stroke-linejoin="round" marker-end="url(#arrowhead)" />
      <path d="M197.41,258.79 L208.81,258.79 L208.81,250.79 L208.81,208.52 L243.41,208.52" stroke="#333" stroke-width="1.00" fill="none" stroke-linecap="round" stroke-linejoin="round" marker-end="url(#arrowhead)" />
      <path d="M404.66,170.52 L426.06,170.52 L426.06,75.17 L550.66,75.17" stroke="#333" stroke-width="1.00" fill="none" stroke-linecap="round" stroke-linejoin="round" marker-end="url(#arrowhead)" />
      <path d="M404.66,189.52 L550.66,189.52" stroke="#333" stroke-width="1.00" fill="none" stroke-linecap="round" stroke-linejoin="round" marker-end="url(#arrowhead)" />
      <path d="M404.66,208.52 L426.06,208.52 L426.06,358.75 L550.66,358.75" stroke="#333" stroke-width="1.00" fill="none" stroke-linecap="round" stroke-linejoin="round" marker-end="url(#arrowhead)" />
      <path d="M708.76,75.17 L860.70,75.17" stroke="#333" stroke-width="1.00" fill="none" stroke-linecap="round" stroke-linejoin="round" marker-end="url(#arrowhead)" />
      <path d="M708.76,189.52 L860.70,189.52" stroke="#333" stroke-width="1.00" fill="none" stroke-linecap="round" stroke-linejoin="round" marker-end="url(#arrowhead)" />
      <path d="M714.70,339.75 L736.10,339.75 L736.10,304.07 L860.70,304.07" stroke="#333" stroke-width="1.00" fill="none" stroke-linecap="round" stroke-linejoin="round" marker-end="url(#arrowhead)" />
      <path d="M714.70,377.75 L736.10,377.75 L736.10,413.44 L860.70,413.44" stroke="#333" stroke-width="1.00" fill="none" stroke-linecap="round" stroke-linejoin="round" marker-end="url(#arrowhead)" />
    </g>
    <g class="nodes">
      <rect x="58.00" y="64.35" width="121.59" height="54.00" rx="27.00" ry="27.00" fill="white" stroke="#333" stroke-width="1.00" stroke-linejoin="round" />
      <text x="118.79" y="91.35" text-anchor="middle" dominant-baseline="middle" fill="#333">Web App</text>
      <rect x="247.41" y="162.52" width="157.25" height="54.00" fill="white" stroke="#333" stroke-width="1.00" stroke-linejoin="round" />
      <text x="326.03" y="189.52" text-anchor="middle" dominant-baseline="middle" fill="#333">API Gateway</text>
      <rect x="58.00" y="250.79" width="139.41" height="54.00" rx="27.00" ry="27.00" fill="white" stroke="#333" stroke-width="1.00" stroke-linejoin="round" />
      <text x="127.70" y="277.79" text-anchor="middle" dominant-baseline="middle" fill="#333">Mobile App</text>
      <rect x="554.66" y="48.17" width="154.10" height="54.00" fill="white" stroke="#333" stroke-width="1.00" stroke-linejoin="round" />
      <text x="631.71" y="75.17" text-anchor="middle" dominant-baseline="middle" fill="#333">Auth Service</text>
      <rect x="554.66" y="162.52" width="154.10" height="54.00" fill="white" stroke="#333" stroke-width="1.00" stroke-linejoin="round" />
      <text x="631.71" y="189.52" text-anchor="middle" dominant-baseline="middle" fill="#333">User Service</text>
      <rect x="554.66" y="331.75" width="160.04" height="54.00" fill="white" stroke="#333" stroke-width="1.00" stroke-linejoin="round" />
      <text x="634.68" y="358.75" text-anchor="middle" dominant-baseline="middle" fill="#333">Order Service</text>
      <path d="M864.70,53.35 A44.14,10.35 0 0,0 952.98,53.35 A44.14,10.35 0 0,0 864.70,53.35 L864.70,97.00 A44.14,10.35 0 0,0 952.98,97.00 L952.98,53.35" fill="white" stroke="#333" stroke-width="1.00" stroke-linejoin="round" />
      <path d="M864.70,53.35 A44.14,10.35 0 0,1 952.98,53.35" fill="none" stroke="#333" stroke-width="1.00" />
      <text x="908.84" y="80.35" text-anchor="middle" dominant-baseline="middle" fill="#333">Auth DB</text>
      <path d="M864.70,167.70 A44.14,10.35 0 0,0 952.98,167.70 A44.14,10.35 0 0,0 864.70,167.70 L864.70,211.35 A44.14,10.35 0 0,0 952.98,211.35 L952.98,167.70" fill="white" stroke="#333" stroke-width="1.00" stroke-linejoin="round" />
      <path d="M864.70,167.70 A44.14,10.35 0 0,1 952.98,167.70" fill="none" stroke="#333" stroke-width="1.00" />
      <text x="908.84" y="194.70" text-anchor="middle" dominant-baseline="middle" fill="#333">User DB</text>
      <path d="M864.70,282.44 A47.11,10.74 0 0,0 958.92,282.44 A47.11,10.74 0 0,0 864.70,282.44 L864.70,325.70 A47.11,10.74 0 0,0 958.92,325.70 L958.92,282.44" fill="white" stroke="#333" stroke-width="1.00" stroke-linejoin="round" />
      <path d="M864.70,282.44 A47.11,10.74 0 0,1 958.92,282.44" fill="none" stroke="#333" stroke-width="1.00" />
      <text x="911.81" y="309.44" text-anchor="middle" dominant-baseline="middle" fill="#333">Order DB</text>
      <rect x="864.70" y="386.44" width="172.81" height="54.00" rx="27.00" ry="27.00" fill="white" stroke="#333" stroke-width="1.00" stroke-linejoin="round" />
      <text x="951.11" y="413.44" text-anchor="middle" dominant-baseline="middle" fill="#333">Message Queue</text>
    </g>
    <g class="edgeLabels">
    </g>
  </g>
</svg>
